  0
SECTION
  2
HEADER
  9
$ACADVER
  1
AC1009
  9
$DWGCODEPAGE
  3
ansi_1252
  9
$INSBASE
 10
0.0
 20
0.0
 30
0.0
  9
$EXTMIN
 10
0.0
 20
-0.0138888888888889
 30
0.0
  9
$EXTMAX
 10
5.866486111111111
 20
5.986111111111111
 30
0.0
  9
$LIMMIN
 10
0.0
 20
0.0
  9
$LIMMAX
 10
12.0
 20
9.0
  9
$ORTHOMODE
 70
     0
  9
$REGENMODE
 70
     1
  9
$FILLMODE
 70
     1
  9
$QTEXTMODE
 70
     0
  9
$MIRRTEXT
 70
     1
  9
$DRAGMODE
 70
     2
  9
$LTSCALE
 40
1.0
  9
$OSMODE
 70
    37
  9
$ATTMODE
 70
     1
  9
$TEXTSIZE
 40
0.2
  9
$TRACEWID
 40
0.05
  9
$TEXTSTYLE
  7
STANDARD
  9
$CLAYER
  8
0
  9
$CELTYPE
  6
BYLAYER
  9
$CECOLOR
 62
   256
  9
$DIMSCALE
 40
1.0
  9
$DIMASZ
 40
0.18
  9
$DIMEXO
 40
0.0625
  9
$DIMDLI
 40
0.38
  9
$DIMRND
 40
0.0
  9
$DIMDLE
 40
0.0
  9
$DIMEXE
 40
0.18
  9
$DIMTP
 40
0.0
  9
$DIMTM
 40
0.0
  9
$DIMTXT
 40
0.18
  9
$DIMCEN
 40
0.09
  9
$DIMTSZ
 40
0.0
  9
$DIMTOL
 70
     0
  9
$DIMLIM
 70
     0
  9
$DIMTIH
 70
     1
  9
$DIMTOH
 70
     1
  9
$DIMSE1
 70
     0
  9
$DIMSE2
 70
     0
  9
$DIMTAD
 70
     0
  9
$DIMZIN
 70
     0
  9
$DIMBLK
  1

  9
$DIMASO
 70
     1
  9
$DIMSHO
 70
     1
  9
$DIMPOST
  1

  9
$DIMAPOST
  1

  9
$DIMALT
 70
     0
  9
$DIMALTD
 70
     2
  9
$DIMALTF
 40
25.4
  9
$DIMLFAC
 40
1.0
  9
$DIMTOFL
 70
     0
  9
$DIMTVP
 40
0.0
  9
$DIMTIX
 70
     0
  9
$DIMSOXD
 70
     0
  9
$DIMSAH
 70
     0
  9
$DIMBLK1
  1

  9
$DIMBLK2
  1

  9
$DIMSTYLE
  2
STANDARD
  9
$DIMCLRD
 70
     0
  9
$DIMCLRE
 70
     0
  9
$DIMCLRT
 70
     0
  9
$DIMTFAC
 40
1.0
  9
$DIMGAP
 40
0.09
  9
$LUNITS
 70
     2
  9
$LUPREC
 70
     4
  9
$SKETCHINC
 40
0.1
  9
$FILLETRAD
 40
0.5
  9
$AUNITS
 70
     0
  9
$AUPREC
 70
     0
  9
$MENU
  1
.
  9
$ELEVATION
 40
0.0
  9
$PELEVATION
 40
0.0
  9
$THICKNESS
 40
0.0
  9
$LIMCHECK
 70
     0
  9
$CHAMFERA
 40
0.5
  9
$CHAMFERB
 40
0.5
  9
$SKPOLY
 70
     0
  9
$TDCREATE
 40
2454910.5
  9
$TDUPDATE
 40
2456624.917723044
  9
$TDINDWG
 40
0.0000000116
  9
$TDUSRTIMER
 40
0.0000000116
  9
$USRTIMER
 70
     1
  9
$ANGBASE
 50
0.0
  9
$ANGDIR
 70
     0
  9
$PDMODE
 70
     0
  9
$PDSIZE
 40
0.0
  9
$PLINEWID
 40
0.0
  9
$COORDS
 70
     1
  9
$SPLFRAME
 70
     0
  9
$SPLINETYPE
 70
     6
  9
$SPLINESEGS
 70
     8
  9
$ATTDIA
 70
     0
  9
$ATTREQ
 70
     1
  9
$HANDLING
 70
     1
  9
$HANDSEED
  5
36F
  9
$SURFTAB1
 70
     6
  9
$SURFTAB2
 70
     6
  9
$SURFTYPE
 70
     6
  9
$SURFU
 70
     6
  9
$SURFV
 70
     6
  9
$UCSNAME
  2

  9
$UCSORG
 10
0.0
 20
0.0
 30
0.0
  9
$UCSXDIR
 10
1.0
 20
0.0
 30
0.0
  9
$UCSYDIR
 10
0.0
 20
1.0
 30
0.0
  9
$PUCSNAME
  2

  9
$PUCSORG
 10
0.0
 20
0.0
 30
0.0
  9
$PUCSXDIR
 10
1.0
 20
0.0
 30
0.0
  9
$PUCSYDIR
 10
0.0
 20
1.0
 30
0.0
  9
$USERI1
 70
     0
  9
$USERI2
 70
     0
  9
$USERI3
 70
     0
  9
$USERI4
 70
     0
  9
$USERI5
 70
     0
  9
$USERR1
 40
0.0
  9
$USERR2
 40
0.0
  9
$USERR3
 40
0.0
  9
$USERR4
 40
0.0
  9
$USERR5
 40
0.0
  9
$WORLDVIEW
 70
     1
  9
$SHADEDGE
 70
     3
  9
$SHADEDIF
 70
    70
  9
$TILEMODE
 70
     1
  9
$MAXACTVP
 70
    64
  9
$PLIMCHECK
 70
     0
  9
$PEXTMIN
 10
1.000000000000000E+20
 20
1.000000000000000E+20
 30
1.000000000000000E+20
  9
$PEXTMAX
 10
-1.000000000000000E+20
 20
-1.000000000000000E+20
 30
-1.000000000000000E+20
  9
$PLIMMIN
 10
0.0
 20
0.0
  9
$PLIMMAX
 10
12.0
 20
9.0
  9
$UNITMODE
 70
     0
  9
$VISRETAIN
 70
     1
  9
$PLINEGEN
 70
     0
  9
$PSLTSCALE
 70
     1
  0
ENDSEC
  0
SECTION
  2
TABLES
  0
TABLE
  2
VPORT
 70
     1
  0
VPORT
  2
*ACTIVE
 70
     0
 10
0.0
 20
0.0
 11
1.0
 21
1.0
 12
10.42990654205607
 22
4.5
 13
0.0
 23
0.0
 14
0.5
 24
0.5
 15
0.5
 25
0.5
 16
0.0
 26
0.0
 36
1.0
 17
0.0
 27
0.0
 37
0.0
 40
9.0
 41
1.972972972850329
 42
50.0
 43
0.0
 44
0.0
 50
0.0
 51
0.0
 71
     0
 72
   100
 73
     1
 74
     3
 75
     0
 76
     0
 77
     0
 78
     0
  0
ENDTAB
  0
TABLE
  2
LTYPE
 70
     2
  0
LTYPE
  2
CONTINUOUS
 70
     0
  3
Solid line
 72
    65
 73
     0
 40
0.0
  0
LTYPE
  2
CONTINUOUS2
 70
     0
  3
Solid Line
 72
    65
 73
     0
 40
0.0
  0
ENDTAB
  0
TABLE
  2
LAYER
 70
     2
  0
LAYER
  2
0
 70
     0
 62
     7
  6
CONTINUOUS
  0
LAYER
  2
LAYER_1
 70
     0
 62
    18
  6
CONTINUOUS
  0
ENDTAB
  0
TABLE
  2
STYLE
 70
     1
  0
STYLE
  2
STANDARD
 70
     0
 40
0.0
 41
1.0
 50
0.0
 71
     0
 42
0.2
  3
txt
  4

  0
ENDTAB
  0
TABLE
  2
VIEW
 70
     0
  0
ENDTAB
  0
TABLE
  2
UCS
 70
     0
  0
ENDTAB
  0
TABLE
  2
APPID
 70
     1
  0
APPID
  2
ACAD
 70
     0
  0
ENDTAB
  0
TABLE
  2
DIMSTYLE
 70
     1
  0
DIMSTYLE
  2
STANDARD
 70
     0
  3

  4

  5

  6

  7

 40
1.0
 41
0.18
 42
0.0625
 43
0.38
 44
0.18
 45
0.0
 46
0.0
 47
0.0
 48
0.0
140
0.18
141
0.09
142
0.0
143
25.4
144
1.0
145
0.0
146
1.0
147
0.09
 71
     0
 72
     0
 73
     1
 74
     1
 75
     0
 76
     0
 77
     0
 78
     0
170
     0
171
     2
172
     0
173
     0
174
     0
175
     0
176
     0
177
     0
178
     0
  0
ENDTAB
  0
ENDSEC
  0
SECTION
  2
BLOCKS
  0
BLOCK
  8
0
  2
$MODEL_SPACE
 70
     0
 10
0.0
 20
0.0
 30
0.0
  3
$MODEL_SPACE
  1

  0
ENDBLK
  5
21
  8
0
  0
BLOCK
 67
     1
  8
0
  2
$PAPER_SPACE
 70
     0
 10
0.0
 20
0.0
 30
0.0
  3
$PAPER_SPACE
  1

  0
ENDBLK
  5
1D
 67
     1
  8
0
  0
ENDSEC
  0
SECTION
  2
ENTITIES
  0
POLYLINE
  5
41
  8
LAYER_1
 66
     1
 10
0.0
 20
0.0
 30
0.0
 70
     1
  0
VERTEX
  5
47
  8
LAYER_1
 10
2.933277777777778
 20
5.986111111111111
 30
0.0
  0
VERTEX
  5
48
  8
LAYER_1
 10
2.92565767176946
 20
5.955945205635494
 30
0.0
  0
VERTEX
  5
49
  8
LAYER_1
 10
2.917757969750298
 20
5.925928479936388
 30
0.0
  0
VERTEX
  5
4A
  8
LAYER_1
 10
2.90958209572898
 20
5.896069529480404
 30
0.0
  0
VERTEX
  5
4B
  8
LAYER_1
 10
2.901133473714192
 20
5.866376949734158
 30
0.0
  0
VERTEX
  5
4C
  8
LAYER_1
 10
2.892415527714623
 20
5.836859336164261
 30
0.0
  0
VERTEX
  5
4D
  8
LAYER_1
 10
2.883431681738958
 20
5.807525284237331
 30
0.0
  0
VERTEX
  5
4E
  8
LAYER_1
 10
2.874185359795887
 20
5.778383389419979
 30
0.0
  0
VERTEX
  5
4F
  8
LAYER_1
 10
2.864679985894097
 20
5.749442247178819
 30
0.0
  0
VERTEX
  5
50
  8
LAYER_1
 10
2.854918984042273
 20
5.720710452980465
 30
0.0
  0
VERTEX
  5
51
  8
LAYER_1
 10
2.844905778249104
 20
5.692196602291531
 30
0.0
  0
VERTEX
  5
52
  8
LAYER_1
 10
2.834643792523277
 20
5.66390929057863
 30
0.0
  0
VERTEX
  5
53
  8
LAYER_1
 10
2.824136450873481
 20
5.635857113308376
 30
0.0
  0
VERTEX
  5
54
  8
LAYER_1
 10
2.8133871773084
 20
5.608048665947384
 30
0.0
  0
VERTEX
  5
55
  8
LAYER_1
 10
2.802399395836724
 20
5.580492543962266
 30
0.0
  0
VERTEX
  5
56
  8
LAYER_1
 10
2.791176530467139
 20
5.553197342819637
 30
0.0
  0
VERTEX
  5
57
  8
LAYER_1
 10
2.779722005208333
 20
5.526171657986111
 30
0.0
  0
VERTEX
  5
58
  8
LAYER_1
 10
2.768039244068993
 20
5.4994240849283
 30
0.0
  0
VERTEX
  5
59
  8
LAYER_1
 10
2.756131671057807
 20
5.47296321911282
 30
0.0
  0
VERTEX
  5
5A
  8
LAYER_1
 10
2.744002710183461
 20
5.446797656006283
 30
0.0
  0
VERTEX
  5
5B
  8
LAYER_1
 10
2.731655785454643
 20
5.420935991075304
 30
0.0
  0
VERTEX
  5
5C
  8
LAYER_1
 10
2.719094320880042
 20
5.395386819786495
 30
0.0
  0
VERTEX
  5
5D
  8
LAYER_1
 10
2.706321740468343
 20
5.370158737606472
 30
0.0
  0
VERTEX
  5
5E
  8
LAYER_1
 10
2.693341468228234
 20
5.345260340001848
 30
0.0
  0
VERTEX
  5
5F
  8
LAYER_1
 10
2.680156928168402
 20
5.320700222439235
 30
0.0
  0
VERTEX
  5
60
  8
LAYER_1
 10
2.666771544297536
 20
5.296486980385249
 30
0.0
  0
VERTEX
  5
61
  8
LAYER_1
 10
2.653188740624322
 20
5.272629209306504
 30
0.0
  0
VERTEX
  5
62
  8
LAYER_1
 10
2.639411941157447
 20
5.249135504669613
 30
0.0
  0
VERTEX
  5
63
  8
LAYER_1
 10
2.625444569905599
 20
5.226014461941189
 30
0.0
  0
VERTEX
  5
64
  8
LAYER_1
 10
2.611290050877465
 20
5.203274676587846
 30
0.0
  0
VERTEX
  5
65
  8
LAYER_1
 10
2.596951808081732
 20
5.180924744076198
 30
0.0
  0
VERTEX
  5
66
  8
LAYER_1
 10
2.582433265527089
 20
5.158973259872859
 30
0.0
  0
VERTEX
  5
67
  8
LAYER_1
 10
2.567737847222222
 20
5.137428819444444
 30
0.0
  0
VERTEX
  5
68
  8
LAYER_1
 10
2.552868977175819
 20
5.116300018257565
 30
0.0
  0
VERTEX
  5
69
  8
LAYER_1
 10
2.537830079396566
 20
5.095595451778835
 30
0.0
  0
VERTEX
  5
6A
  8
LAYER_1
 10
2.522624577893152
 20
5.07532371547487
 30
0.0
  0
VERTEX
  5
6B
  8
LAYER_1
 10
2.507255896674262
 20
5.055493404812283
 30
0.0
  0
VERTEX
  5
6C
  8
LAYER_1
 10
2.491727459748586
 20
5.036113115257687
 30
0.0
  0
VERTEX
  5
6D
  8
LAYER_1
 10
2.47604269112481
 20
5.017191442277697
 30
0.0
  0
VERTEX
  5
6E
  8
LAYER_1
 10
2.460205014811622
 20
4.998736981338926
 30
0.0
  0
VERTEX
  5
6F
  8
LAYER_1
 10
2.444217854817708
 20
4.980758327907986
 30
0.0
  0
VERTEX
  5
70
  8
LAYER_1
 10
2.428084635151757
 20
4.963264077451493
 30
0.0
  0
VERTEX
  5
71
  8
LAYER_1
 10
2.411808779822455
 20
4.946262825436062
 30
0.0
  0
VERTEX
  5
72
  8
LAYER_1
 10
2.39539371283849
 20
4.929763167328304
 30
0.0
  0
VERTEX
  5
73
  8
LAYER_1
 10
2.37884285820855
 20
4.913773698594834
 30
0.0
  0
VERTEX
  5
74
  8
LAYER_1
 10
2.362159639941321
 20
4.898303014702267
 30
0.0
  0
VERTEX
  5
75
  8
LAYER_1
 10
2.345347482045491
 20
4.883359711117214
 30
0.0
  0
VERTEX
  5
76
  8
LAYER_1
 10
2.328409808529748
 20
4.868952383306292
 30
0.0
  0
VERTEX
  5
77
  8
LAYER_1
 10
2.311350043402777
 20
4.855089626736111
 30
0.0
  0
VERTEX
  5
78
  8
LAYER_1
 10
2.294171610673268
 20
4.841780036873288
 30
0.0
  0
VERTEX
  5
79
  8
LAYER_1
 10
2.276877934349907
 20
4.829032209184435
 30
0.0
  0
VERTEX
  5
7A
  8
LAYER_1
 10
2.259472438441382
 20
4.816854739136167
 30
0.0
  0
VERTEX
  5
7B
  8
LAYER_1
 10
2.24195854695638
 20
4.805256222195096
 30
0.0
  0
VERTEX
  5
7C
  8
LAYER_1
 10
2.224339683903587
 20
4.794245253827837
 30
0.0
  0
VERTEX
  5
7D
  8
LAYER_1
 10
2.206619273291693
 20
4.783830429501004
 30
0.0
  0
VERTEX
  5
7E
  8
LAYER_1
 10
2.188800739129384
 20
4.77402034468121
 30
0.0
  0
VERTEX
  5
7F
  8
LAYER_1
 10
2.170887505425347
 20
4.764823594835069
 30
0.0
  0
VERTEX
  5
80
  8
LAYER_1
 10
2.152882996188269
 20
4.756248775429195
 30
0.0
  0
VERTEX
  5
81
  8
LAYER_1
 10
2.134790635426839
 20
4.748304481930202
 30
0.0
  0
VERTEX
  5
82
  8
LAYER_1
 10
2.116613847149742
 20
4.740999309804703
 30
0.0
  0
VERTEX
  5
83
  8
LAYER_1
 10
2.098356055365668
 20
4.734341854519314
 30
0.0
  0
VERTEX
  5
84
  8
LAYER_1
 10
2.080020684083302
 20
4.728340711540645
 30
0.0
  0
VERTEX
  5
85
  8
LAYER_1
 10
2.061611157311333
 20
4.723004476335312
 30
0.0
  0
VERTEX
  5
86
  8
LAYER_1
 10
2.043130899058448
 20
4.71834174436993
 30
0.0
  0
VERTEX
  5
87
  8
LAYER_1
 10
2.024583333333333
 20
4.714361111111111
 30
0.0
  0
VERTEX
  5
88
  8
LAYER_1
 10
2.03504146279229
 20
4.693626981099446
 30
0.0
  0
VERTEX
  5
89
  8
LAYER_1
 10
2.046124671088324
 20
4.673732862684461
 30
0.0
  0
VERTEX
  5
8A
  8
LAYER_1
 10
2.057806344350179
 20
4.654664600796169
 30
0.0
  0
VERTEX
  5
8B
  8
LAYER_1
 10
2.070059868706597
 20
4.636408040364582
 30
0.0
  0
VERTEX
  5
8C
  8
LAYER_1
 10
2.082858630286323
 20
4.618949026319715
 30
0.0
  0
VERTEX
  5
8D
  8
LAYER_1
 10
2.096176015218099
 20
4.602273403591579
 30
0.0
  0
VERTEX
  5
8E
  8
LAYER_1
 10
2.109985409630669
 20
4.586367017110188
 30
0.0
  0
VERTEX
  5
8F
  8
LAYER_1
 10
2.124260199652777
 20
4.571215711805555
 30
0.0
  0
VERTEX
  5
90
  8
LAYER_1
 10
2.138973771413167
 20
4.556805332607691
 30
0.0
  0
VERTEX
  5
91
  8
LAYER_1
 10
2.154099511040581
 20
4.543121724446613
 30
0.0
  0
VERTEX
  5
92
  8
LAYER_1
 10
2.169610804663764
 20
4.530150732252332
 30
0.0
  0
VERTEX
  5
93
  8
LAYER_1
 10
2.185481038411458
 20
4.51787820095486
 30
0.0
  0
VERTEX
  5
94
  8
LAYER_1
 10
2.201683598412408
 20
4.506289975484212
 30
0.0
  0
VERTEX
  5
95
  8
LAYER_1
 10
2.218191870795355
 20
4.495371900770399
 30
0.0
  0
VERTEX
  5
96
  8
LAYER_1
 10
2.234979241689046
 20
4.485109821743436
 30
0.0
  0
VERTEX
  5
97
  8
LAYER_1
 10
2.252019097222222
 20
4.475489583333333
 30
0.0
  0
VERTEX
  5
98
  8
LAYER_1
 10
2.269284823523627
 20
4.466497030470107
 30
0.0
  0
VERTEX
  5
99
  8
LAYER_1
 10
2.286749806722005
 20
4.458118008083767
 30
0.0
  0
VERTEX
  5
9A
  8
LAYER_1
 10
2.304387432946099
 20
4.450338361104329
 30
0.0
  0
VERTEX
  5
9B
  8
LAYER_1
 10
2.322171088324652
 20
4.443143934461806
 30
0.0
  0
VERTEX
  5
9C
  8
LAYER_1
 10
2.340074158986409
 20
4.436520573086209
 30
0.0
  0
VERTEX
  5
9D
  8
LAYER_1
 10
2.358070031060112
 20
4.430454121907553
 30
0.0
  0
VERTEX
  5
9E
  8
LAYER_1
 10
2.376132090674506
 20
4.424930425855849
 30
0.0
  0
VERTEX
  5
9F
  8
LAYER_1
 10
2.394233723958333
 20
4.419935329861111
 30
0.0
  0
VERTEX
  5
A0
  8
LAYER_1
 10
2.412348317040337
 20
4.415454678853353
 30
0.0
  0
VERTEX
  5
A1
  8
LAYER_1
 10
2.430449256049262
 20
4.411474317762587
 30
0.0
  0
VERTEX
  5
A2
  8
LAYER_1
 10
2.44850992711385
 20
4.407980091518827
 30
0.0
  0
VERTEX
  5
A3
  8
LAYER_1
 10
2.466503716362847
 20
4.404957845052084
 30
0.0
  0
VERTEX
  5
A4
  8
LAYER_1
 10
2.484404009924994
 20
4.402393423292373
 30
0.0
  0
VERTEX
  5
A5
  8
LAYER_1
 10
2.502184193929036
 20
4.400272671169705
 30
0.0
  0
VERTEX
  5
A6
  8
LAYER_1
 10
2.519817654503716
 20
4.398581433614095
 30
0.0
  0
VERTEX
  5
A7
  8
LAYER_1
 10
2.537277777777778
 20
4.397305555555556
 30
0.0
  0
VERTEX
  5
A8
  8
LAYER_1
 10
2.526166884581248
 20
4.373261557049221
 30
0.0
  0
VERTEX
  5
A9
  8
LAYER_1
 10
2.514758959028456
 20
4.349615229288737
 30
0.0
  0
VERTEX
  5
AA
  8
LAYER_1
 10
2.503058319674598
 20
4.326362652036879
 30
0.0
  0
VERTEX
  5
AB
  8
LAYER_1
 10
2.49106928507487
 20
4.303499905056424
 30
0.0
  0
VERTEX
  5
AC
  8
LAYER_1
 10
2.478796173784468
 20
4.281023068110148
 30
0.0
  0
VERTEX
  5
AD
  8
LAYER_1
 10
2.466243304358589
 20
4.258928220960829
 30
0.0
  0
VERTEX
  5
AE
  8
LAYER_1
 10
2.453414995352427
 20
4.237211443371242
 30
0.0
  0
VERTEX
  5
AF
  8
LAYER_1
 10
2.440315565321181
 20
4.215868815104167
 30
0.0
  0
VERTEX
  5
B0
  8
LAYER_1
 10
2.426949332820045
 20
4.194896415922377
 30
0.0
  0
VERTEX
  5
B1
  8
LAYER_1
 10
2.413320616404215
 20
4.17429032558865
 30
0.0
  0
VERTEX
  5
B2
  8
LAYER_1
 10
2.399433734628889
 20
4.154046623865764
 30
0.0
  0
VERTEX
  5
B3
  8
LAYER_1
 10
2.385293006049262
 20
4.134161390516493
 30
0.0
  0
VERTEX
  5
B4
  8
LAYER_1
 10
2.37090274922053
 20
4.114630705303616
 30
0.0
  0
VERTEX
  5
B5
  8
LAYER_1
 10
2.35626728269789
 20
4.095450647989908
 30
0.0
  0
VERTEX
  5
B6
  8
LAYER_1
 10
2.341390925036537
 20
4.076617298338149
 30
0.0
  0
VERTEX
  5
B7
  8
LAYER_1
 10
2.326277994791667
 20
4.058126736111111
 30
0.0
  0
VERTEX
  5
B8
  8
LAYER_1
 10
2.310932810518477
 20
4.039975041071574
 30
0.0
  0
VERTEX
  5
B9
  8
LAYER_1
 10
2.295359690772163
 20
4.022158292982313
 30
0.0
  0
VERTEX
  5
BA
  8
LAYER_1
 10
2.279562954107921
 20
4.004672571606107
 30
0.0
  0
VERTEX
  5
BB
  8
LAYER_1
 10
2.263546919080946
 20
3.987513956705729
 30
0.0
  0
VERTEX
  5
BC
  8
LAYER_1
 10
2.247315904246436
 20
3.970678528043959
 30
0.0
  0
VERTEX
  5
BD
  8
LAYER_1
 10
2.230874228159587
 20
3.954162365383572
 30
0.0
  0
VERTEX
  5
BE
  8
LAYER_1
 10
2.214226209375593
 20
3.937961548487345
 30
0.0
  0
VERTEX
  5
BF
  8
LAYER_1
 10
2.197376166449653
 20
3.922072157118055
 30
0.0
  0
VERTEX
  5
C0
  8
LAYER_1
 10
2.180328417936961
 20
3.906490271038479
 30
0.0
  0
VERTEX
  5
C1
  8
LAYER_1
 10
2.163087282392714
 20
3.891211970011393
 30
0.0
  0
VERTEX
  5
C2
  8
LAYER_1
 10
2.145657078372108
 20
3.876233333799574
 30
0.0
  0
VERTEX
  5
C3
  8
LAYER_1
 10
2.128042124430339
 20
3.861550442165798
 30
0.0
  0
VERTEX
  5
C4
  8
LAYER_1
 10
2.110246739122602
 20
3.847159374872843
 30
0.0
  0
VERTEX
  5
C5
  8
LAYER_1
 10
2.092275241004096
 20
3.833056211683484
 30
0.0
  0
VERTEX
  5
C6
  8
LAYER_1
 10
2.074131948630015
 20
3.8192370323605
 30
0.0
  0
VERTEX
  5
C7
  8
LAYER_1
 10
2.055821180555556
 20
3.805697916666666
 30
0.0
  0
VERTEX
  5
C8
  8
LAYER_1
 10
2.037347255335914
 20
3.792434944364759
 30
0.0
  0
VERTEX
  5
C9
  8
LAYER_1
 10
2.018714491526286
 20
3.779444195217556
 30
0.0
  0
VERTEX
  5
CA
  8
LAYER_1
 10
1.999927207681868
 20
3.766721748987833
 30
0.0
  0
VERTEX
  5
CB
  8
LAYER_1
 10
1.980989722357856
 20
3.754263685438367
 30
0.0
  0
VERTEX
  5
CC
  8
LAYER_1
 10
1.942681421491835
 20
3.730125025431315
 30
0.0
  0
VERTEX
  5
CD
  8
LAYER_1
 10
1.903824137369792
 20
3.706996853298611
 30
0.0
  0
VERTEX
  5
CE
  8
LAYER_1
 10
1.864452418433296
 20
3.684847807142469
 30
0.0
  0
VERTEX
  5
CF
  8
LAYER_1
 10
1.824600813123915
 20
3.663646525065104
 30
0.0
  0
VERTEX
  5
D0
  8
LAYER_1
 10
1.784303869883219
 20
3.643361645168728
 30
0.0
  0
VERTEX
  5
D1
  8
LAYER_1
 10
1.743596137152778
 20
3.623961805555555
 30
0.0
  0
VERTEX
  5
D2
  8
LAYER_1
 10
1.702512163374159
 20
3.605415644327799
 30
0.0
  0
VERTEX
  5
D3
  8
LAYER_1
 10
1.661086496988933
 20
3.587691799587673
 30
0.0
  0
VERTEX
  5
D4
  8
LAYER_1
 10
1.619353686438667
 20
3.570758909437391
 30
0.0
  0
VERTEX
  5
D5
  8
LAYER_1
 10
1.577348280164931
 20
3.554585611979166
 30
0.0
  0
VERTEX
  5
D6
  8
LAYER_1
 10
1.535104826609293
 20
3.539140545315212
 30
0.0
  0
VERTEX
  5
D7
  8
LAYER_1
 10
1.492657874213325
 20
3.524392347547743
 30
0.0
  0
VERTEX
  5
D8
  8
LAYER_1
 10
1.450041971418593
 20
3.510309656778971
 30
0.0
  0
VERTEX
  5
D9
  8
LAYER_1
 10
1.407291666666667
 20
3.496861111111111
 30
0.0
  0
VERTEX
  5
DA
  8
LAYER_1
 10
1.426853266398112
 20
3.472632351769341
 30
0.0
  0
VERTEX
  5
DB
  8
LAYER_1
 10
1.446856241861979
 20
3.44896430460612
 30
0.0
  0
VERTEX
  5
DC
  8
LAYER_1
 10
1.467289576212565
 20
3.425864784664578
 30
0.0
  0
VERTEX
  5
DD
  8
LAYER_1
 10
1.488142252604166
 20
3.403341606987847
 30
0.0
  0
VERTEX
  5
DE
  8
LAYER_1
 10
1.50940325419108
 20
3.381402586619059
 30
0.0
  0
VERTEX
  5
DF
  8
LAYER_1
 10
1.531061564127604
 20
3.360055538601345
 30
0.0
  0
VERTEX
  5
E0
  8
LAYER_1
 10
1.553106165568034
 20
3.339308277977837
 30
0.0
  0
VERTEX
  5
E1
  8
LAYER_1
 10
1.575526041666666
 20
3.319168619791666
 30
0.0
  0
VERTEX
  5
E2
  8
LAYER_1
 10
1.598310175577799
 20
3.299644379085964
 30
0.0
  0
VERTEX
  5
E3
  8
LAYER_1
 10
1.621447550455729
 20
3.280743370903862
 30
0.0
  0
VERTEX
  5
E4
  8
LAYER_1
 10
1.644927149454752
 20
3.262473410288492
 30
0.0
  0
VERTEX
  5
E5
  8
LAYER_1
 10
1.668737955729166
 20
3.244842312282985
 30
0.0
  0
VERTEX
  5
E6
  8
LAYER_1
 10
1.692868952433268
 20
3.227857891930474
 30
0.0
  0
VERTEX
  5
E7
  8
LAYER_1
 10
1.717309122721354
 20
3.211527964274088
 30
0.0
  0
VERTEX
  5
E8
  8
LAYER_1
 10
1.742047449747721
 20
3.19586034435696
 30
0.0
  0
VERTEX
  5
E9
  8
LAYER_1
 10
1.767072916666667
 20
3.180862847222222
 30
0.0
  0
VERTEX
  5
EA
  8
LAYER_1
 10
1.792374506632487
 20
3.166543287913004
 30
0.0
  0
VERTEX
  5
EB
  8
LAYER_1
 10
1.817941202799479
 20
3.152909481472439
 30
0.0
  0
VERTEX
  5
EC
  8
LAYER_1
 10
1.84376198832194
 20
3.139969242943658
 30
0.0
  0
VERTEX
  5
ED
  8
LAYER_1
 10
1.869825846354166
 20
3.127730387369792
 30
0.0
  0
VERTEX
  5
EE
  8
LAYER_1
 10
1.896121760050455
 20
3.116200729793972
 30
0.0
  0
VERTEX
  5
EF
  8
LAYER_1
 10
1.922638712565104
 20
3.105388085259332
 30
0.0
  0
VERTEX
  5
F0
  8
LAYER_1
 10
1.949365687052409
 20
3.095300268809001
 30
0.0
  0
VERTEX
  5
F1
  8
LAYER_1
 10
1.976291666666667
 20
3.085945095486111
 30
0.0
  0
VERTEX
  5
F2
  8
LAYER_1
 10
2.003405634562174
 20
3.077330380333795
 30
0.0
  0
VERTEX
  5
F3
  8
LAYER_1
 10
2.030696573893229
 20
3.069463938395182
 30
0.0
  0
VERTEX
  5
F4
  8
LAYER_1
 10
2.058153467814128
 20
3.062353584713406
 30
0.0
  0
VERTEX
  5
F5
  8
LAYER_1
 10
2.085765299479167
 20
3.056007134331597
 30
0.0
  0
VERTEX
  5
F6
  8
LAYER_1
 10
2.113521052042643
 20
3.050432402292887
 30
0.0
  0
VERTEX
  5
F7
  8
LAYER_1
 10
2.141409708658855
 20
3.045637203640408
 30
0.0
  0
VERTEX
  5
F8
  8
LAYER_1
 10
2.169420252482097
 20
3.04162935341729
 30
0.0
  0
VERTEX
  5
F9
  8
LAYER_1
 10
2.197541666666667
 20
3.038416666666667
 30
0.0
  0
VERTEX
  5
FA
  8
LAYER_1
 10
2.168947787814671
 20
2.990596552530924
 30
0.0
  0
VERTEX
  5
FB
  8
LAYER_1
 10
2.139727484809028
 20
2.943383748372395
 30
0.0
  0
VERTEX
  5
FC
  8
LAYER_1
 10
2.109855570475261
 20
2.896833155314127
 30
0.0
  0
VERTEX
  5
FD
  8
LAYER_1
 10
2.07930685763889
 20
2.850999674479166
 30
0.0
  0
VERTEX
  5
FE
  8
LAYER_1
 10
2.048056159125434
 20
2.805938206990559
 30
0.0
  0
VERTEX
  5
FF
  8
LAYER_1
 10
2.016078287760417
 20
2.761703653971353
 30
0.0
  0
VERTEX
  5
100
  8
LAYER_1
 10
1.983348056369358
 20
2.718350916544596
 30
0.0
  0
VERTEX
  5
101
  8
LAYER_1
 10
1.966692934672038
 20
2.697022385279337
 30
0.0
  0
VERTEX
  5
102
  8
LAYER_1
 10
1.949840277777778
 20
2.675934895833333
 30
0.0
  0
VERTEX
  5
103
  8
LAYER_1
 10
1.932786937289768
 20
2.655095310846964
 30
0.0
  0
VERTEX
  5
104
  8
LAYER_1
 10
1.915529764811198
 20
2.634510492960612
 30
0.0
  0
VERTEX
  5
105
  8
LAYER_1
 10
1.898065611945258
 20
2.614187304814656
 30
0.0
  0
VERTEX
  5
106
  8
LAYER_1
 10
1.880391330295139
 20
2.594132609049479
 30
0.0
  0
VERTEX
  5
107
  8
LAYER_1
 10
1.86250377146403
 20
2.574353268305461
 30
0.0
  0
VERTEX
  5
108
  8
LAYER_1
 10
1.844399787055122
 20
2.554856145222982
 30
0.0
  0
VERTEX
  5
109
  8
LAYER_1
 10
1.826076228671604
 20
2.535648102442424
 30
0.0
  0
VERTEX
  5
10A
  8
LAYER_1
 10
1.807529947916667
 20
2.516736002604167
 30
0.0
  0
VERTEX
  5
10B
  8
LAYER_1
 10
1.7887577963935
 20
2.498126708348592
 30
0.0
  0
VERTEX
  5
10C
  8
LAYER_1
 10
1.769756625705295
 20
2.47982708231608
 30
0.0
  0
VERTEX
  5
10D
  8
LAYER_1
 10
1.750523287455241
 20
2.461843987147013
 30
0.0
  0
VERTEX
  5
10E
  8
LAYER_1
 10
1.731054633246528
 20
2.444184285481771
 30
0.0
  0
VERTEX
  5
10F
  8
LAYER_1
 10
1.711347514682346
 20
2.426854839960734
 30
0.0
  0
VERTEX
  5
110
  8
LAYER_1
 10
1.691398783365885
 20
2.409862513224284
 30
0.0
  0
VERTEX
  5
111
  8
LAYER_1
 10
1.671205290900337
 20
2.393214167912801
 30
0.0
  0
VERTEX
  5
112
  8
LAYER_1
 10
1.650763888888889
 20
2.376916666666666
 30
0.0
  0
VERTEX
  5
113
  8
LAYER_1
 10
1.630071428934733
 20
2.360976872126261
 30
0.0
  0
VERTEX
  5
114
  8
LAYER_1
 10
1.609124762641059
 20
2.345401646931966
 30
0.0
  0
VERTEX
  5
115
  8
LAYER_1
 10
1.587920741611057
 20
2.330197853724162
 30
0.0
  0
VERTEX
  5
116
  8
LAYER_1
 10
1.566456217447917
 20
2.315372355143229
 30
0.0
  0
VERTEX
  5
117
  8
LAYER_1
 10
1.544728041754829
 20
2.300932013829549
 30
0.0
  0
VERTEX
  5
118
  8
LAYER_1
 10
1.522733066134983
 20
2.286883692423502
 30
0.0
  0
VERTEX
  5
119
  8
LAYER_1
 10
1.500468142191569
 20
2.27323425356547
 30
0.0
  0
VERTEX
  5
11A
  8
LAYER_1
 10
1.477930121527778
 20
2.259990559895833
 30
0.0
  0
VERTEX
  5
11B
  8
LAYER_1
 10
1.455115855746799
 20
2.247159474054972
 30
0.0
  0
VERTEX
  5
11C
  8
LAYER_1
 10
1.432022196451823
 20
2.234747858683268
 30
0.0
  0
VERTEX
  5
11D
  8
LAYER_1
 10
1.40864599524604
 20
2.222762576421101
 30
0.0
  0
VERTEX
  5
11E
  8
LAYER_1
 10
1.384984103732639
 20
2.211210489908854
 30
0.0
  0
VERTEX
  5
11F
  8
LAYER_1
 10
1.361033373514811
 20
2.200098461786906
 30
0.0
  0
VERTEX
  5
120
  8
LAYER_1
 10
1.336790656195746
 20
2.189433354695638
 30
0.0
  0
VERTEX
  5
121
  8
LAYER_1
 10
1.312252803378635
 20
2.179222031275431
 30
0.0
  0
VERTEX
  5
122
  8
LAYER_1
 10
1.287416666666667
 20
2.169471354166666
 30
0.0
  0
VERTEX
  5
123
  8
LAYER_1
 10
1.262279097663032
 20
2.160188186009725
 30
0.0
  0
VERTEX
  5
124
  8
LAYER_1
 10
1.23683694797092
 20
2.151379389444987
 30
0.0
  0
VERTEX
  5
125
  8
LAYER_1
 10
1.211087069193522
 20
2.143051827112834
 30
0.0
  0
VERTEX
  5
126
  8
LAYER_1
 10
1.185026312934028
 20
2.135212361653646
 30
0.0
  0
VERTEX
  5
127
  8
LAYER_1
 10
1.158651530795627
 20
2.127867855707804
 30
0.0
  0
VERTEX
  5
128
  8
LAYER_1
 10
1.13195957438151
 20
2.12102517191569
 30
0.0
  0
VERTEX
  5
129
  8
LAYER_1
 10
1.104947295294868
 20
2.114691172917684
 30
0.0
  0
VERTEX
  5
12A
  8
LAYER_1
 10
1.077611545138889
 20
2.108872721354166
 30
0.0
  0
VERTEX
  5
12B
  8
LAYER_1
 10
1.049949175516764
 20
2.103576679865519
 30
0.0
  0
VERTEX
  5
12C
  8
LAYER_1
 10
1.021957038031684
 20
2.098809911092122
 30
0.0
  0
VERTEX
  5
12D
  8
LAYER_1
 10
0.993631984286838
 20
2.094579277674357
 30
0.0
  0
VERTEX
  5
12E
  8
LAYER_1
 10
0.9649708658854166
 20
2.090891642252604
 30
0.0
  0
VERTEX
  5
12F
  8
LAYER_1
 10
0.93597053443061
 20
2.087753867467245
 30
0.0
  0
VERTEX
  5
130
  8
LAYER_1
 10
0.9066278415256077
 20
2.085172815958659
 30
0.0
  0
VERTEX
  5
131
  8
LAYER_1
 10
0.8769396387736004
 20
2.083155350367228
 30
0.0
  0
VERTEX
  5
132
  8
LAYER_1
 10
0.8469027777777778
 20
2.081708333333333
 30
0.0
  0
VERTEX
  5
133
  8
LAYER_1
 10
0.8732904027303059
 20
2.05063872273763
 30
0.0
  0
VERTEX
  5
134
  8
LAYER_1
 10
0.9005563490125867
 20
2.020153889973958
 30
0.0
  0
VERTEX
  5
135
  8
LAYER_1
 10
0.9286755362616644
 20
1.990285146077474
 30
0.0
  0
VERTEX
  5
136
  8
LAYER_1
 10
0.9576228841145833
 20
1.961063802083333
 30
0.0
  0
VERTEX
  5
137
  8
LAYER_1
 10
0.9873733122083874
 20
1.932521169026692
 30
0.0
  0
VERTEX
  5
138
  8
LAYER_1
 10
1.017901740180121
 20
1.904688557942708
 30
0.0
  0
VERTEX
  5
139
  8
LAYER_1
 10
1.049183087666829
 20
1.877597279866536
 30
0.0
  0
VERTEX
  5
13A
  8
LAYER_1
 10
1.081192274305555
 20
1.851278645833333
 30
0.0
  0
VERTEX
  5
13B
  8
LAYER_1
 10
1.113904219733344
 20
1.825763966878255
 30
0.0
  0
VERTEX
  5
13C
  8
LAYER_1
 10
1.147293843587239
 20
1.801084554036458
 30
0.0
  0
VERTEX
  5
13D
  8
LAYER_1
 10
1.181336065504286
 20
1.777271718343099
 30
0.0
  0
VERTEX
  5
13E
  8
LAYER_1
 10
1.216005805121528
 20
1.754356770833333
 30
0.0
  0
VERTEX
  5
13F
  8
LAYER_1
 10
1.251277982076009
 20
1.732371022542318
 30
0.0
  0
VERTEX
  5
140
  8
LAYER_1
 10
1.287127516004774
 20
1.711345784505208
 30
0.0
  0
VERTEX
  5
141
  8
LAYER_1
 10
1.323529326544868
 20
1.691312367757162
 30
0.0
  0
VERTEX
  5
142
  8
LAYER_1
 10
1.360458333333333
 20
1.672302083333333
 30
0.0
  0
VERTEX
  5
143
  8
LAYER_1
 10
1.397889456007216
 20
1.65434624226888
 30
0.0
  0
VERTEX
  5
144
  8
LAYER_1
 10
1.435797614203559
 20
1.637476155598958
 30
0.0
  0
VERTEX
  5
145
  8
LAYER_1
 10
1.45492274400923
 20
1.629458054860433
 30
0.0
  0
VERTEX
  5
146
  8
LAYER_1
 10
1.474157727559407
 20
1.621723134358724
 30
0.0
  0
VERTEX
  5
147
  8
LAYER_1
 10
1.493499429808723
 20
1.614275307973226
 30
0.0
  0
VERTEX
  5
148
  8
LAYER_1
 10
1.512944715711805
 20
1.607118489583333
 30
0.0
  0
VERTEX
  5
149
  8
LAYER_1
 10
1.532490450223287
 20
1.600256593068441
 30
0.0
  0
VERTEX
  5
14A
  8
LAYER_1
 10
1.552133498297797
 20
1.593693532307943
 30
0.0
  0
VERTEX
  5
14B
  8
LAYER_1
 10
1.571870724889967
 20
1.587433221181234
 30
0.0
  0
VERTEX
  5
14C
  8
LAYER_1
 10
1.591698994954427
 20
1.581479573567708
 30
0.0
  0
VERTEX
  5
14D
  8
LAYER_1
 10
1.611615173445808
 20
1.575836503346761
 30
0.0
  0
VERTEX
  5
14E
  8
LAYER_1
 10
1.631616125318739
 20
1.570507924397786
 30
0.0
  0
VERTEX
  5
14F
  8
LAYER_1
 10
1.651698715527852
 20
1.565497750600179
 30
0.0
  0
VERTEX
  5
150
  8
LAYER_1
 10
1.671859809027778
 20
1.560809895833333
 30
0.0
  0
VERTEX
  5
151
  8
LAYER_1
 10
1.692096270773146
 20
1.556448273976644
 30
0.0
  0
VERTEX
  5
152
  8
LAYER_1
 10
1.712404965718587
 20
1.552416798909505
 30
0.0
  0
VERTEX
  5
153
  8
LAYER_1
 10
1.732782758818732
 20
1.548719384511312
 30
0.0
  0
VERTEX
  5
154
  8
LAYER_1
 10
1.753226515028212
 20
1.545359944661458
 30
0.0
  0
VERTEX
  5
155
  8
LAYER_1
 10
1.773733099301656
 20
1.542342393239339
 30
0.0
  0
VERTEX
  5
156
  8
LAYER_1
 10
1.794299376593696
 20
1.539670644124349
 30
0.0
  0
VERTEX
  5
157
  8
LAYER_1
 10
1.814922211858961
 20
1.537348611195882
 30
0.0
  0
VERTEX
  5
158
  8
LAYER_1
 10
1.835598470052083
 20
1.535380208333333
 30
0.0
  0
VERTEX
  5
159
  8
LAYER_1
 10
1.856325016127692
 20
1.533769349416097
 30
0.0
  0
VERTEX
  5
15A
  8
LAYER_1
 10
1.877098715040419
 20
1.532519948323568
 30
0.0
  0
VERTEX
  5
15B
  8
LAYER_1
 10
1.897916431744894
 20
1.53163591893514
 30
0.0
  0
VERTEX
  5
15C
  8
LAYER_1
 10
1.918775031195747
 20
1.531121175130208
 30
0.0
  0
VERTEX
  5
15D
  8
LAYER_1
 10
1.939671378347609
 20
1.530979630788167
 30
0.0
  0
VERTEX
  5
15E
  8
LAYER_1
 10
1.960602338155111
 20
1.531215199788412
 30
0.0
  0
VERTEX
  5
15F
  8
LAYER_1
 10
1.981564775572883
 20
1.531831796010335
 30
0.0
  0
VERTEX
  5
160
  8
LAYER_1
 10
2.002555555555555
 20
1.532833333333333
 30
0.0
  0
VERTEX
  5
161
  8
LAYER_1
 10
1.983106039524078
 20
1.508931373490227
 30
0.0
  0
VERTEX
  5
162
  8
LAYER_1
 10
1.963231725480821
 20
1.485393859015571
 30
0.0
  0
VERTEX
  5
163
  8
LAYER_1
 10
1.942934980127546
 20
1.462221384366353
 30
0.0
  0
VERTEX
  5
164
  8
LAYER_1
 10
1.922218170166015
 20
1.439414543999566
 30
0.0
  0
VERTEX
  5
165
  8
LAYER_1
 10
1.90108366229799
 20
1.416973932372199
 30
0.0
  0
VERTEX
  5
166
  8
LAYER_1
 10
1.879533823225233
 20
1.394900143941243
 30
0.0
  0
VERTEX
  5
167
  8
LAYER_1
 10
1.857571019649505
 20
1.373193773163689
 30
0.0
  0
VERTEX
  5
168
  8
LAYER_1
 10
1.835197618272569
 20
1.351855414496528
 30
0.0
  0
VERTEX
  5
169
  8
LAYER_1
 10
1.812415985796187
 20
1.330885662396749
 30
0.0
  0
VERTEX
  5
16A
  8
LAYER_1
 10
1.789228488922119
 20
1.310285111321343
 30
0.0
  0
VERTEX
  5
16B
  8
LAYER_1
 10
1.765637494352129
 20
1.290054355727301
 30
0.0
  0
VERTEX
  5
16C
  8
LAYER_1
 10
1.741645368787977
 20
1.270193990071614
 30
0.0
  0
VERTEX
  5
16D
  8
LAYER_1
 10
1.717254478931427
 20
1.250704608811272
 30
0.0
  0
VERTEX
  5
16E
  8
LAYER_1
 10
1.692467191484239
 20
1.231586806403266
 30
0.0
  0
VERTEX
  5
16F
  8
LAYER_1
 10
1.667285873148176
 20
1.212841177304586
 30
0.0
  0
VERTEX
  5
170
  8
LAYER_1
 10
1.641712890625
 20
1.194468315972222
 30
0.0
  0
VERTEX
  5
171
  8
LAYER_1
 10
1.615750610616472
 20
1.176468816863166
 30
0.0
  0
VERTEX
  5
172
  8
LAYER_1
 10
1.589401399824354
 20
1.158843274434407
 30
0.0
  0
VERTEX
  5
173
  8
LAYER_1
 10
1.562667624950409
 20
1.141592283142937
 30
0.0
  0
VERTEX
  5
174
  8
LAYER_1
 10
1.535551652696397
 20
1.124716437445747
 30
0.0
  0
VERTEX
  5
175
  8
LAYER_1
 10
1.508055849764082
 20
1.108216331799825
 30
0.0
  0
VERTEX
  5
176
  8
LAYER_1
 10
1.480182582855224
 20
1.092092560662163
 30
0.0
  0
VERTEX
  5
177
  8
LAYER_1
 10
1.451934218671587
 20
1.076345718489753
 30
0.0
  0
VERTEX
  5
178
  8
LAYER_1
 10
1.42331312391493
 20
1.060976399739583
 30
0.0
  0
VERTEX
  5
179
  8
LAYER_1
 10
1.394321665287018
 20
1.045985198868645
 30
0.0
  0
VERTEX
  5
17A
  8
LAYER_1
 10
1.36496220948961
 20
1.03137271033393
 30
0.0
  0
VERTEX
  5
17B
  8
LAYER_1
 10
1.33523712322447
 20
1.017139528592427
 30
0.0
  0
VERTEX
  5
17C
  8
LAYER_1
 10
1.305148773193359
 20
1.003286248101128
 30
0.0
  0
VERTEX
  5
17D
  8
LAYER_1
 10
1.274699526098039
 20
0.9898134633170234
 30
0.0
  0
VERTEX
  5
17E
  8
LAYER_1
 10
1.243891748640272
 20
0.9767217686971028
 30
0.0
  0
VERTEX
  5
17F
  8
LAYER_1
 10
1.21272780752182
 20
0.9640117586983574
 30
0.0
  0
VERTEX
  5
180
  8
LAYER_1
 10
1.181210069444444
 20
0.9516840277777778
 30
0.0
  0
VERTEX
  5
181
  8
LAYER_1
 10
1.149340901109907
 20
0.9397391703923543
 30
0.0
  0
VERTEX
  5
182
  8
LAYER_1
 10
1.11712266921997
 20
0.9281777809990777
 30
0.0
  0
VERTEX
  5
183
  8
LAYER_1
 10
1.084557740476396
 20
0.9170004540549384
 30
0.0
  0
VERTEX
  5
184
  8
LAYER_1
 10
1.051648481580946
 20
0.906207784016927
 30
0.0
  0
VERTEX
  5
185
  8
LAYER_1
 10
1.018397259235382
 20
0.8958003653420342
 30
0.0
  0
VERTEX
  5
186
  8
LAYER_1
 10
0.9848064401414658
 20
0.8857787924872504
 30
0.0
  0
VERTEX
  5
187
  8
LAYER_1
 10
0.9508783910009595
 20
0.8761436599095662
 30
0.0
  0
VERTEX
  5
188
  8
LAYER_1
 10
0.9166154785156249
 20
0.8668955620659722
 30
0.0
  0
VERTEX
  5
189
  8
LAYER_1
 10
0.8820200693872238
 20
0.8580350934134588
 30
0.0
  0
VERTEX
  5
18A
  8
LAYER_1
 10
0.8470945303175182
 20
0.8495628484090169
 30
0.0
  0
VERTEX
  5
18B
  8
LAYER_1
 10
0.8118412280082701
 20
0.8414794215096366
 30
0.0
  0
VERTEX
  5
18C
  8
LAYER_1
 10
0.7762625291612412
 20
0.833785407172309
 30
0.0
  0
VERTEX
  5
18D
  8
LAYER_1
 10
0.7403608004781934
 20
0.8264813998540242
 30
0.0
  0
VERTEX
  5
18E
  8
LAYER_1
 10
0.7041384086608886
 20
0.819567994011773
 30
0.0
  0
VERTEX
  5
18F
  8
LAYER_1
 10
0.6675977204110886
 20
0.8130457841025458
 30
0.0
  0
VERTEX
  5
190
  8
LAYER_1
 10
0.6307411024305554
 20
0.8069153645833333
 30
0.0
  0
VERTEX
  5
191
  8
LAYER_1
 10
0.5935709214210508
 20
0.801177329911126
 30
0.0
  0
VERTEX
  5
192
  8
LAYER_1
 10
0.5560895440843369
 20
0.7958322745429145
 30
0.0
  0
VERTEX
  5
193
  8
LAYER_1
 10
0.5182993371221754
 20
0.7908807929356892
 30
0.0
  0
VERTEX
  5
194
  8
LAYER_1
 10
0.480202667236328
 20
0.7863234795464409
 30
0.0
  0
VERTEX
  5
195
  8
LAYER_1
 10
0.4418019011285569
 20
0.7821609288321599
 30
0.0
  0
VERTEX
  5
196
  8
LAYER_1
 10
0.4030994055006238
 20
0.7783937352498371
 30
0.0
  0
VERTEX
  5
197
  8
LAYER_1
 10
0.3640975470542906
 20
0.7750224932564628
 30
0.0
  0
VERTEX
  5
198
  8
LAYER_1
 10
0.3247986924913193
 20
0.7720477973090276
 30
0.0
  0
VERTEX
  5
199
  8
LAYER_1
 10
0.2852052085134717
 20
0.7694702418645223
 30
0.0
  0
VERTEX
  5
19A
  8
LAYER_1
 10
0.2453194618225097
 20
0.767290421379937
 30
0.0
  0
VERTEX
  5
19B
  8
LAYER_1
 10
0.2051438191201951
 20
0.7655089303122626
 30
0.0
  0
VERTEX
  5
19C
  8
LAYER_1
 10
0.1646806471082899
 20
0.7641263631184896
 30
0.0
  0
VERTEX
  5
19D
  8
LAYER_1
 10
0.1239323124885559
 20
0.7631433142556086
 30
0.0
  0
VERTEX
  5
19E
  8
LAYER_1
 10
0.082901181962755
 20
0.7625603781806098
 30
0.0
  0
VERTEX
  5
19F
  8
LAYER_1
 10
0.0415896222326491
 20
0.7623781493504842
 30
0.0
  0
VERTEX
  5
1A0
  8
LAYER_1
 10
0.0
 20
0.7625972222222221
 30
0.0
  0
VERTEX
  5
1A1
  8
LAYER_1
 10
0.0281051148838467
 20
0.738919412559933
 30
0.0
  0
VERTEX
  5
1A2
  8
LAYER_1
 10
0.0566187104119195
 20
0.7156552950541177
 30
0.0
  0
VERTEX
  5
1A3
  8
LAYER_1
 10
0.0855334753990173
 20
0.6928025869263543
 30
0.0
  0
VERTEX
  5
1A4
  8
LAYER_1
 10
0.1148420986599392
 20
0.6703590053982205
 30
0.0
  0
VERTEX
  5
1A5
  8
LAYER_1
 10
0.1445372690094842
 20
0.6483222676912943
 30
0.0
  0
VERTEX
  5
1A6
  8
LAYER_1
 10
0.1746116752624511
 20
0.6266900910271538
 30
0.0
  0
VERTEX
  5
1A7
  8
LAYER_1
 10
0.2050580062336392
 20
0.6054601926273768
 30
0.0
  0
VERTEX
  5
1A8
  8
LAYER_1
 10
0.2358689507378472
 20
0.5846302897135416
 30
0.0
  0
VERTEX
  5
1A9
  8
LAYER_1
 10
0.2670371975898743
 20
0.5641980995072258
 30
0.0
  0
VERTEX
  5
1AA
  8
LAYER_1
 10
0.2985554356045194
 20
0.5441613392300075
 30
0.0
  0
VERTEX
  5
1AB
  8
LAYER_1
 10
0.3304163535965814
 20
0.5245177261034647
 30
0.0
  0
VERTEX
  5
1AC
  8
LAYER_1
 10
0.3626126403808594
 20
0.5052649773491752
 30
0.0
  0
VERTEX
  5
1AD
  8
LAYER_1
 10
0.3951369847721524
 20
0.4864008101887172
 30
0.0
  0
VERTEX
  5
1AE
  8
LAYER_1
 10
0.4279820755852594
 20
0.4679229418436684
 30
0.0
  0
VERTEX
  5
1AF
  8
LAYER_1
 10
0.4611406016349792
 20
0.4498290895356071
 30
0.0
  0
VERTEX
  5
1B0
  8
LAYER_1
 10
0.4946052517361111
 20
0.432116970486111
 30
0.0
  0
VERTEX
  5
1B1
  8
LAYER_1
 10
0.5283687147034538
 20
0.4147843019167582
 30
0.0
  0
VERTEX
  5
1B2
  8
LAYER_1
 10
0.5624236793518065
 20
0.3978288010491264
 30
0.0
  0
VERTEX
  5
1B3
  8
LAYER_1
 10
0.5967628344959682
 20
0.3812481851047939
 30
0.0
  0
VERTEX
  5
1B4
  8
LAYER_1
 10
0.6313788689507378
 20
0.3650401713053385
 30
0.0
  0
VERTEX
  5
1B5
  8
LAYER_1
 10
0.6662644715309143
 20
0.3492024768723382
 30
0.0
  0
VERTEX
  5
1B6
  8
LAYER_1
 10
0.7014123310512965
 20
0.3337328190273708
 30
0.0
  0
VERTEX
  5
1B7
  8
LAYER_1
 10
0.7368151363266837
 20
0.3186289149920145
 30
0.0
  0
VERTEX
  5
1B8
  8
LAYER_1
 10
0.7724655761718748
 20
0.3038884819878472
 30
0.0
  0
VERTEX
  5
1B9
  8
LAYER_1
 10
0.8083563394016688
 20
0.2895092372364467
 30
0.0
  0
VERTEX
  5
1BA
  8
LAYER_1
 10
0.8444801148308647
 20
0.2754888979593912
 30
0.0
  0
VERTEX
  5
1BB
  8
LAYER_1
 10
0.8808295912742614
 20
0.2618251813782585
 30
0.0
  0
VERTEX
  5
1BC
  8
LAYER_1
 10
0.9173974575466579
 20
0.2485158047146267
 30
0.0
  0
VERTEX
  5
1BD
  8
LAYER_1
 10
0.9541764024628533
 20
0.2355584851900736
 30
0.0
  0
VERTEX
  5
1BE
  8
LAYER_1
 10
0.9911591148376464
 20
0.2229509400261773
 30
0.0
  0
VERTEX
  5
1BF
  8
LAYER_1
 10
1.028338283485836
 20
0.2106908864445156
 30
0.0
  0
VERTEX
  5
1C0
  8
LAYER_1
 10
1.065706597222222
 20
0.1987760416666666
 30
0.0
  0
VERTEX
  5
1C1
  8
LAYER_1
 10
1.103256744861603
 20
0.1872041229142083
 30
0.0
  0
VERTEX
  5
1C2
  8
LAYER_1
 10
1.140981415218777
 20
0.1759728474087185
 30
0.0
  0
VERTEX
  5
1C3
  8
LAYER_1
 10
1.178873297108544
 20
0.1650799323717753
 30
0.0
  0
VERTEX
  5
1C4
  8
LAYER_1
 10
1.216925079345703
 20
0.1545230950249566
 30
0.0
  0
VERTEX
  5
1C5
  8
LAYER_1
 10
1.255129450745053
 20
0.1443000525898403
 30
0.0
  0
VERTEX
  5
1C6
  8
LAYER_1
 10
1.293479100121392
 20
0.1344085222880045
 30
0.0
  0
VERTEX
  5
1C7
  8
LAYER_1
 10
1.33196671628952
 20
0.1248462213410271
 30
0.0
  0
VERTEX
  5
1C8
  8
LAYER_1
 10
1.370584988064236
 20
0.1156108669704861
 30
0.0
  0
VERTEX
  5
1C9
  8
LAYER_1
 10
1.409326604260339
 20
0.1067001763979594
 30
0.0
  0
VERTEX
  5
1CA
  8
LAYER_1
 10
1.448184253692627
 20
0.0981118668450249
 30
0.0
  0
VERTEX
  5
1CB
  8
LAYER_1
 10
1.4871506251759
 20
0.0898436555332607
 30
0.0
  0
VERTEX
  5
1CC
  8
LAYER_1
 10
1.526218407524957
 20
0.0818932596842448
 30
0.0
  0
VERTEX
  5
1CD
  8
LAYER_1
 10
1.565380289554596
 20
0.074258396519555
 30
0.0
  0
VERTEX
  5
1CE
  8
LAYER_1
 10
1.604628960079617
 20
0.0669367832607693
 30
0.0
  0
VERTEX
  5
1CF
  8
LAYER_1
 10
1.643957107914819
 20
0.0599261371294657
 30
0.0
  0
VERTEX
  5
1D0
  8
LAYER_1
 10
1.683357421875
 20
0.0532241753472222
 30
0.0
  0
VERTEX
  5
1D1
  8
LAYER_1
 10
1.72282259077496
 20
0.0468286151356167
 30
0.0
  0
VERTEX
  5
1D2
  8
LAYER_1
 10
1.762345303429498
 20
0.0407371737162272
 30
0.0
  0
VERTEX
  5
1D3
  8
LAYER_1
 10
1.801918248653412
 20
0.0349475683106316
 30
0.0
  0
VERTEX
  5
1D4
  8
LAYER_1
 10
1.841534115261502
 20
0.029457516140408
 30
0.0
  0
VERTEX
  5
1D5
  8
LAYER_1
 10
1.920865367889404
 20
0.0193669403923882
 30
0.0
  0
VERTEX
  5
1D6
  8
LAYER_1
 10
2.000280571831597
 20
0.0104471842447917
 30
0.0
  0
VERTEX
  5
1D7
  8
LAYER_1
 10
2.079721237606472
 20
0.002679985470242
 30
0.0
  0
VERTEX
  5
1D8
  8
LAYER_1
 10
2.159128875732423
 20
-0.0039529181586372
 30
0.0
  0
VERTEX
  5
1D9
  8
LAYER_1
 10
2.238444996727838
 20
-0.009469788869222
 30
0.0
  0
VERTEX
  5
1DA
  8
LAYER_1
 10
2.317611111111111
 20
-0.0138888888888889
 30
0.0
  0
VERTEX
  5
1DB
  8
LAYER_1
 10
3.548944444444444
 20
-0.0138888888888889
 30
0.0
  0
VERTEX
  5
1DC
  8
LAYER_1
 10
3.628109334733751
 20
-0.009469788869222
 30
0.0
  0
VERTEX
  5
1DD
  8
LAYER_1
 10
3.707424374050564
 20
-0.0039529181586372
 30
0.0
  0
VERTEX
  5
1DE
  8
LAYER_1
 10
3.786831052568224
 20
0.002679985470242
 30
0.0
  0
VERTEX
  5
1DF
  8
LAYER_1
 10
3.866270860460069
 20
0.0104471842447917
 30
0.0
  0
VERTEX
  5
1E0
  8
LAYER_1
 10
3.94568528789944
 20
0.0193669403923882
 30
0.0
  0
VERTEX
  5
1E1
  8
LAYER_1
 10
4.025015825059678
 20
0.029457516140408
 30
0.0
  0
VERTEX
  5
1E2
  8
LAYER_1
 10
4.064631350464291
 20
0.0349475683106316
 30
0.0
  0
VERTEX
  5
1E3
  8
LAYER_1
 10
4.104203962114122
 20
0.0407371737162272
 30
0.0
  0
VERTEX
  5
1E4
  8
LAYER_1
 10
4.14372634628084
 20
0.0468286151356167
 30
0.0
  0
VERTEX
  5
1E5
  8
LAYER_1
 10
4.18319118923611
 20
0.0532241753472222
 30
0.0
  0
VERTEX
  5
1E6
  8
LAYER_1
 10
4.222591177251603
 20
0.0599261371294657
 30
0.0
  0
VERTEX
  5
1E7
  8
LAYER_1
 10
4.261918996598984
 20
0.0669367832607693
 30
0.0
  0
VERTEX
  5
1E8
  8
LAYER_1
 10
4.301167333549923
 20
0.074258396519555
 30
0.0
  0
VERTEX
  5
1E9
  8
LAYER_1
 10
4.340328874376084
 20
0.0818932596842448
 30
0.0
  0
VERTEX
  5
1EA
  8
LAYER_1
 10
4.379396305349138
 20
0.0898436555332607
 30
0.0
  0
VERTEX
  5
1EB
  8
LAYER_1
 10
4.418362312740749
 20
0.0981118668450249
 30
0.0
  0
VERTEX
  5
1EC
  8
LAYER_1
 10
4.457219582822587
 20
0.1067001763979594
 30
0.0
  0
VERTEX
  5
1ED
  8
LAYER_1
 10
4.495960801866318
 20
0.1156108669704861
 30
0.0
  0
VERTEX
  5
1EE
  8
LAYER_1
 10
4.534578656143611
 20
0.1248462213410271
 30
0.0
  0
VERTEX
  5
1EF
  8
LAYER_1
 10
4.573065831926132
 20
0.1344085222880045
 30
0.0
  0
VERTEX
  5
1F0
  8
LAYER_1
 10
4.61141501548555
 20
0.1443000525898403
 30
0.0
  0
VERTEX
  5
1F1
  8
LAYER_1
 10
4.649618893093532
 20
0.1545230950249566
 30
0.0
  0
VERTEX
  5
1F2
  8
LAYER_1
 10
4.687670151021744
 20
0.1650799323717753
 30
0.0
  0
VERTEX
  5
1F3
  8
LAYER_1
 10
4.725561475541856
 20
0.1759728474087185
 30
0.0
  0
VERTEX
  5
1F4
  8
LAYER_1
 10
4.763285552925533
 20
0.1872041229142083
 30
0.0
  0
VERTEX
  5
1F5
  8
LAYER_1
 10
4.800835069444443
 20
0.1987760416666666
 30
0.0
  0
VERTEX
  5
1F6
  8
LAYER_1
 10
4.838202711370255
 20
0.2106908864445156
 30
0.0
  0
VERTEX
  5
1F7
  8
LAYER_1
 10
4.875381164974636
 20
0.2229509400261773
 30
0.0
  0
VERTEX
  5
1F8
  8
LAYER_1
 10
4.912363116529252
 20
0.2355584851900736
 30
0.0
  0
VERTEX
  5
1F9
  8
LAYER_1
 10
4.949141252305772
 20
0.2485158047146267
 30
0.0
  0
VERTEX
  5
1FA
  8
LAYER_1
 10
4.985708258575862
 20
0.2618251813782585
 30
0.0
  0
VERTEX
  5
1FB
  8
LAYER_1
 10
5.022056821611192
 20
0.2754888979593912
 30
0.0
  0
VERTEX
  5
1FC
  8
LAYER_1
 10
5.058179627683426
 20
0.2895092372364467
 30
0.0
  0
VERTEX
  5
1FD
  8
LAYER_1
 10
5.094069363064236
 20
0.3038884819878472
 30
0.0
  0
VERTEX
  5
1FE
  8
LAYER_1
 10
5.129718714025284
 20
0.3186289149920145
 30
0.0
  0
VERTEX
  5
1FF
  8
LAYER_1
 10
5.165120366838242
 20
0.3337328190273708
 30
0.0
  0
VERTEX
  5
200
  8
LAYER_1
 10
5.200267007774776
 20
0.3492024768723382
 30
0.0
  0
VERTEX
  5
201
  8
LAYER_1
 10
5.235151323106552
 20
0.3650401713053385
 30
0.0
  0
VERTEX
  5
202
  8
LAYER_1
 10
5.269765999105239
 20
0.3812481851047939
 30
0.0
  0
VERTEX
  5
203
  8
LAYER_1
 10
5.304103722042505
 20
0.3978288010491264
 30
0.0
  0
VERTEX
  5
204
  8
LAYER_1
 10
5.338157178190018
 20
0.4147843019167582
 30
0.0
  0
VERTEX
  5
205
  8
LAYER_1
 10
5.371919053819443
 20
0.432116970486111
 30
0.0
  0
VERTEX
  5
206
  8
LAYER_1
 10
5.405382035202448
 20
0.4498290895356071
 30
0.0
  0
VERTEX
  5
207
  8
LAYER_1
 10
5.438538808610703
 20
0.4679229418436684
 30
0.0
  0
VERTEX
  5
208
  8
LAYER_1
 10
5.471382060315873
 20
0.4864008101887172
 30
0.0
  0
VERTEX
  5
209
  8
LAYER_1
 10
5.503904476589626
 20
0.5052649773491752
 30
0.0
  0
VERTEX
  5
20A
  8
LAYER_1
 10
5.536098743703629
 20
0.5245177261034647
 30
0.0
  0
VERTEX
  5
20B
  8
LAYER_1
 10
5.56795754792955
 20
0.5441613392300075
 30
0.0
  0
VERTEX
  5
20C
  8
LAYER_1
 10
5.599473575539058
 20
0.5641980995072258
 30
0.0
  0
VERTEX
  5
20D
  8
LAYER_1
 10
5.630639512803818
 20
0.5846302897135416
 30
0.0
  0
VERTEX
  5
20E
  8
LAYER_1
 10
5.661448045995499
 20
0.6054601926273768
 30
0.0
  0
VERTEX
  5
20F
  8
LAYER_1
 10
5.691891861385767
 20
0.6266900910271538
 30
0.0
  0
VERTEX
  5
210
  8
LAYER_1
 10
5.721963645246293
 20
0.6483222676912943
 30
0.0
  0
VERTEX
  5
211
  8
LAYER_1
 10
5.75165608384874
 20
0.6703590053982205
 30
0.0
  0
VERTEX
  5
212
  8
LAYER_1
 10
5.780961863464778
 20
0.6928025869263543
 30
0.0
  0
VERTEX
  5
213
  8
LAYER_1
 10
5.809873670366073
 20
0.7156552950541177
 30
0.0
  0
VERTEX
  5
214
  8
LAYER_1
 10
5.838384190824296
 20
0.738919412559933
 30
0.0
  0
VERTEX
  5
215
  8
LAYER_1
 10
5.866486111111111
 20
0.7625972222222221
 30
0.0
  0
VERTEX
  5
216
  8
LAYER_1
 10
5.82489648914337
 20
0.7623781493504842
 30
0.0
  0
VERTEX
  5
217
  8
LAYER_1
 10
5.783584931267631
 20
0.7625603781806098
 30
0.0
  0
VERTEX
  5
218
  8
LAYER_1
 10
5.742553805775112
 20
0.7631433142556086
 30
0.0
  0
VERTEX
  5
219
  8
LAYER_1
 10
5.701805480957031
 20
0.7641263631184896
 30
0.0
  0
VERTEX
  5
21A
  8
LAYER_1
 10
5.661342325104608
 20
0.7655089303122626
 30
0.0
  0
VERTEX
  5
21B
  8
LAYER_1
 10
5.621166706509061
 20
0.767290421379937
 30
0.0
  0
VERTEX
  5
21C
  8
LAYER_1
 10
5.581280993461609
 20
0.7694702418645223
 30
0.0
  0
VERTEX
  5
21D
  8
LAYER_1
 10
5.541687554253472
 20
0.7720477973090276
 30
0.0
  0
VERTEX
  5
21E
  8
LAYER_1
 10
5.502388757175869
 20
0.7750224932564628
 30
0.0
  0
VERTEX
  5
21F
  8
LAYER_1
 10
5.463386970520019
 20
0.7783937352498371
 30
0.0
  0
VERTEX
  5
220
  8
LAYER_1
 10
5.424684562577141
 20
0.7821609288321599
 30
0.0
  0
VERTEX
  5
221
  8
LAYER_1
 10
5.386283901638454
 20
0.7863234795464409
 30
0.0
  0
VERTEX
  5
222
  8
LAYER_1
 10
5.348187355995178
 20
0.7908807929356892
 30
0.0
  0
VERTEX
  5
223
  8
LAYER_1
 10
5.31039729393853
 20
0.7958322745429145
 30
0.0
  0
VERTEX
  5
224
  8
LAYER_1
 10
5.272916083759732
 20
0.801177329911126
 30
0.0
  0
VERTEX
  5
225
  8
LAYER_1
 10
5.23574609375
 20
0.8069153645833333
 30
0.0
  0
VERTEX
  5
226
  8
LAYER_1
 10
5.198889692200554
 20
0.8130457841025458
 30
0.0
  0
VERTEX
  5
227
  8
LAYER_1
 10
5.162349247402615
 20
0.819567994011773
 30
0.0
  0
VERTEX
  5
228
  8
LAYER_1
 10
5.126127127647399
 20
0.8264813998540242
 30
0.0
  0
VERTEX
  5
229
  8
LAYER_1
 10
5.090225701226128
 20
0.833785407172309
 30
0.0
  0
VERTEX
  5
22A
  8
LAYER_1
 10
5.05464733643002
 20
0.8414794215096366
 30
0.0
  0
VERTEX
  5
22B
  8
LAYER_1
 10
5.019394401550294
 20
0.8495628484090169
 30
0.0
  0
VERTEX
  5
22C
  8
LAYER_1
 10
4.984469264878167
 20
0.8580350934134588
 30
0.0
  0
VERTEX
  5
22D
  8
LAYER_1
 10
4.949874294704861
 20
0.8668955620659722
 30
0.0
  0
VERTEX
  5
22E
  8
LAYER_1
 10
4.915611859321594
 20
0.8761436599095662
 30
0.0
  0
VERTEX
  5
22F
  8
LAYER_1
 10
4.881684327019586
 20
0.8857787924872504
 30
0.0
  0
VERTEX
  5
230
  8
LAYER_1
 10
4.848094066090054
 20
0.8958003653420342
 30
0.0
  0
VERTEX
  5
231
  8
LAYER_1
 10
4.814843444824218
 20
0.906207784016927
 30
0.0
  0
VERTEX
  5
232
  8
LAYER_1
 10
4.781934831513299
 20
0.9170004540549384
 30
0.0
  0
VERTEX
  5
233
  8
LAYER_1
 10
4.749370594448513
 20
0.9281777809990777
 30
0.0
  0
VERTEX
  5
234
  8
LAYER_1
 10
4.717153101921082
 20
0.9397391703923543
 30
0.0
  0
VERTEX
  5
235
  8
LAYER_1
 10
4.685284722222222
 20
0.9516840277777778
 30
0.0
  0
VERTEX
  5
236
  8
LAYER_1
 10
4.653767823643154
 20
0.9640117586983574
 30
0.0
  0
VERTEX
  5
237
  8
LAYER_1
 10
4.622604774475096
 20
0.9767217686971028
 30
0.0
  0
VERTEX
  5
238
  8
LAYER_1
 10
4.591797943009269
 20
0.9898134633170234
 30
0.0
  0
VERTEX
  5
239
  8
LAYER_1
 10
4.561349697536892
 20
1.003286248101128
 30
0.0
  0
VERTEX
  5
23A
  8
LAYER_1
 10
4.531262406349182
 20
1.017139528592427
 30
0.0
  0
VERTEX
  5
23B
  8
LAYER_1
 10
4.501538437737359
 20
1.03137271033393
 30
0.0
  0
VERTEX
  5
23C
  8
LAYER_1
 10
4.472180159992642
 20
1.045985198868645
 30
0.0
  0
VERTEX
  5
23D
  8
LAYER_1
 10
4.44318994140625
 20
1.060976399739583
 30
0.0
  0
VERTEX
  5
23E
  8
LAYER_1
 10
4.414570150269402
 20
1.076345718489753
 30
0.0
  0
VERTEX
  5
23F
  8
LAYER_1
 10
4.386323154873318
 20
1.092092560662163
 30
0.0
  0
VERTEX
  5
240
  8
LAYER_1
 10
4.358451323509216
 20
1.108216331799825
 30
0.0
  0
VERTEX
  5
241
  8
LAYER_1
 10
4.330957024468316
 20
1.124716437445747
 30
0.0
  0
VERTEX
  5
242
  8
LAYER_1
 10
4.303842626041836
 20
1.141592283142937
 30
0.0
  0
VERTEX
  5
243
  8
LAYER_1
 10
4.277110496520995
 20
1.158843274434407
 30
0.0
  0
VERTEX
  5
244
  8
LAYER_1
 10
4.250763004197014
 20
1.176468816863166
 30
0.0
  0
VERTEX
  5
245
  8
LAYER_1
 10
4.224802517361111
 20
1.194468315972222
 30
0.0
  0
VERTEX
  5
246
  8
LAYER_1
 10
4.199231404304504
 20
1.212841177304586
 30
0.0
  0
VERTEX
  5
247
  8
LAYER_1
 10
4.174052033318413
 20
1.231586806403266
 30
0.0
  0
VERTEX
  5
248
  8
LAYER_1
 10
4.149266772694058
 20
1.250704608811272
 30
0.0
  0
VERTEX
  5
249
  8
LAYER_1
 10
4.124877990722656
 20
1.270193990071614
 30
0.0
  0
VERTEX
  5
24A
  8
LAYER_1
 10
4.100888055695428
 20
1.290054355727301
 30
0.0
  0
VERTEX
  5
24B
  8
LAYER_1
 10
4.077299335903591
 20
1.310285111321343
 30
0.0
  0
VERTEX
  5
24C
  8
LAYER_1
 10
4.054114199638367
 20
1.330885662396749
 30
0.0
  0
VERTEX
  5
24D
  8
LAYER_1
 10
4.031335015190972
 20
1.351855414496528
 30
0.0
  0
VERTEX
  5
24E
  8
LAYER_1
 10
4.008964150852627
 20
1.373193773163689
 30
0.0
  0
VERTEX
  5
24F
  8
LAYER_1
 10
3.987003974914551
 20
1.394900143941243
 30
0.0
  0
VERTEX
  5
250
  8
LAYER_1
 10
3.965456855667962
 20
1.416973932372199
 30
0.0
  0
VERTEX
  5
251
  8
LAYER_1
 10
3.94432516140408
 20
1.439414543999566
 30
0.0
  0
VERTEX
  5
252
  8
LAYER_1
 10
3.923611260414123
 20
1.462221384366353
 30
0.0
  0
VERTEX
  5
253
  8
LAYER_1
 10
3.903317520989312
 20
1.485393859015571
 30
0.0
  0
VERTEX
  5
254
  8
LAYER_1
 10
3.883446311420863
 20
1.508931373490227
 30
0.0
  0
VERTEX
  5
255
  8
LAYER_1
 10
3.863999999999999
 20
1.532833333333333
 30
0.0
  0
VERTEX
  5
256
  8
LAYER_1
 10
3.884987625704871
 20
1.531831796010335
 30
0.0
  0
VERTEX
  5
257
  8
LAYER_1
 10
3.905947107526991
 20
1.531215199788412
 30
0.0
  0
VERTEX
  5
258
  8
LAYER_1
 10
3.926875305652618
 20
1.530979630788167
 30
0.0
  0
VERTEX
  5
259
  8
LAYER_1
 10
3.947769080268012
 20
1.531121175130208
 30
0.0
  0
VERTEX
  5
25A
  8
LAYER_1
 10
3.968625291559431
 20
1.53163591893514
 30
0.0
  0
VERTEX
  5
25B
  8
LAYER_1
 10
3.989440799713134
 20
1.532519948323568
 30
0.0
  0
VERTEX
  5
25C
  8
LAYER_1
 10
4.010212464915381
 20
1.533769349416097
 30
0.0
  0
VERTEX
  5
25D
  8
LAYER_1
 10
4.03093714735243
 20
1.535380208333333
 30
0.0
  0
VERTEX
  5
25E
  8
LAYER_1
 10
4.051611707210541
 20
1.537348611195882
 30
0.0
  0
VERTEX
  5
25F
  8
LAYER_1
 10
4.072233004675971
 20
1.539670644124349
 30
0.0
  0
VERTEX
  5
260
  8
LAYER_1
 10
4.092797899934981
 20
1.542342393239339
 30
0.0
  0
VERTEX
  5
261
  8
LAYER_1
 10
4.113303253173828
 20
1.545359944661458
 30
0.0
  0
VERTEX
  5
262
  8
LAYER_1
 10
4.133745924578773
 20
1.548719384511312
 30
0.0
  0
VERTEX
  5
263
  8
LAYER_1
 10
4.154122774336073
 20
1.552416798909505
 30
0.0
  0
VERTEX
  5
264
  8
LAYER_1
 10
4.174430662631988
 20
1.556448273976644
 30
0.0
  0
VERTEX
  5
265
  8
LAYER_1
 10
4.194666449652777
 20
1.560809895833333
 30
0.0
  0
VERTEX
  5
266
  8
LAYER_1
 10
4.2148269955847
 20
1.565497750600179
 30
0.0
  0
VERTEX
  5
267
  8
LAYER_1
 10
4.234909160614013
 20
1.570507924397786
 30
0.0
  0
VERTEX
  5
268
  8
LAYER_1
 10
4.254909804926977
 20
1.575836503346761
 30
0.0
  0
VERTEX
  5
269
  8
LAYER_1
 10
4.274825788709851
 20
1.581479573567708
 30
0.0
  0
VERTEX
  5
26A
  8
LAYER_1
 10
4.294653972148895
 20
1.587433221181234
 30
0.0
  0
VERTEX
  5
26B
  8
LAYER_1
 10
4.314391215430365
 20
1.593693532307943
 30
0.0
  0
VERTEX
  5
26C
  8
LAYER_1
 10
4.334034378740522
 20
1.600256593068441
 30
0.0
  0
VERTEX
  5
26D
  8
LAYER_1
 10
4.353580322265625
 20
1.607118489583333
 30
0.0
  0
VERTEX
  5
26E
  8
LAYER_1
 10
4.373025906191931
 20
1.614275307973226
 30
0.0
  0
VERTEX
  5
26F
  8
LAYER_1
 10
4.392367990705702
 20
1.621723134358724
 30
0.0
  0
VERTEX
  5
270
  8
LAYER_1
 10
4.411603435993194
 20
1.629458054860433
 30
0.0
  0
VERTEX
  5
271
  8
LAYER_1
 10
4.430729102240668
 20
1.637476155598958
 30
0.0
  0
VERTEX
  5
272
  8
LAYER_1
 10
4.468638538360595
 20
1.65434624226888
 30
0.0
  0
VERTEX
  5
273
  8
LAYER_1
 10
4.506071180555555
 20
1.672302083333333
 30
0.0
  0
VERTEX
  5
274
  8
LAYER_1
 10
4.543001910315619
 20
1.691312367757162
 30
0.0
  0
VERTEX
  5
275
  8
LAYER_1
 10
4.579405609130859
 20
1.711345784505208
 30
0.0
  0
VERTEX
  5
276
  8
LAYER_1
 10
4.615257158491346
 20
1.732371022542318
 30
0.0
  0
VERTEX
  5
277
  8
LAYER_1
 10
4.650531439887152
 20
1.754356770833333
 30
0.0
  0
VERTEX
  5
278
  8
LAYER_1
 10
4.685203334808349
 20
1.777271718343099
 30
0.0
  0
VERTEX
  5
279
  8
LAYER_1
 10
4.719247724745008
 20
1.801084554036458
 30
0.0
  0
VERTEX
  5
27A
  8
LAYER_1
 10
4.752639491187201
 20
1.825763966878255
 30
0.0
  0
VERTEX
  5
27B
  8
LAYER_1
 10
4.785353515624999
 20
1.851278645833333
 30
0.0
  0
VERTEX
  5
27C
  8
LAYER_1
 10
4.817364679548475
 20
1.877597279866536
 30
0.0
  0
VERTEX
  5
27D
  8
LAYER_1
 10
4.848647864447699
 20
1.904688557942708
 30
0.0
  0
VERTEX
  5
27E
  8
LAYER_1
 10
4.879177951812744
 20
1.932521169026692
 30
0.0
  0
VERTEX
  5
27F
  8
LAYER_1
 10
4.90892982313368
 20
1.961063802083333
 30
0.0
  0
VERTEX
  5
280
  8
LAYER_1
 10
4.93787835990058
 20
1.990285146077474
 30
0.0
  0
VERTEX
  5
281
  8
LAYER_1
 10
4.965998443603515
 20
2.020153889973958
 30
0.0
  0
VERTEX
  5
282
  8
LAYER_1
 10
4.993264955732557
 20
2.05063872273763
 30
0.0
  0
VERTEX
  5
283
  8
LAYER_1
 10
5.019652777777777
 20
2.081708333333333
 30
0.0
  0
VERTEX
  5
284
  8
LAYER_1
 10
4.989615285714466
 20
2.083155350367228
 30
0.0
  0
VERTEX
  5
285
  8
LAYER_1
 10
4.959926490359836
 20
2.085172815958659
 30
0.0
  0
VERTEX
  5
286
  8
LAYER_1
 10
4.930583241091833
 20
2.087753867467245
 30
0.0
  0
VERTEX
  5
287
  8
LAYER_1
 10
4.901582387288411
 20
2.090891642252604
 30
0.0
  0
VERTEX
  5
288
  8
LAYER_1
 10
4.872920778327517
 20
2.094579277674357
 30
0.0
  0
VERTEX
  5
289
  8
LAYER_1
 10
4.844595263587103
 20
2.098809911092122
 30
0.0
  0
VERTEX
  5
28A
  8
LAYER_1
 10
4.816602692445119
 20
2.103576679865519
 30
0.0
  0
VERTEX
  5
28B
  8
LAYER_1
 10
4.788939914279513
 20
2.108872721354166
 30
0.0
  0
VERTEX
  5
28C
  8
LAYER_1
 10
4.761603778468238
 20
2.114691172917684
 30
0.0
  0
VERTEX
  5
28D
  8
LAYER_1
 10
4.734591134389242
 20
2.12102517191569
 30
0.0
  0
VERTEX
  5
28E
  8
LAYER_1
 10
4.707898831420475
 20
2.127867855707804
 30
0.0
  0
VERTEX
  5
28F
  8
LAYER_1
 10
4.681523718939888
 20
2.135212361653646
 30
0.0
  0
VERTEX
  5
290
  8
LAYER_1
 10
4.65546264632543
 20
2.143051827112834
 30
0.0
  0
VERTEX
  5
291
  8
LAYER_1
 10
4.629712462955052
 20
2.151379389444987
 30
0.0
  0
VERTEX
  5
292
  8
LAYER_1
 10
4.604270018206702
 20
2.160188186009725
 30
0.0
  0
VERTEX
  5
293
  8
LAYER_1
 10
4.579132161458332
 20
2.169471354166666
 30
0.0
  0
VERTEX
  5
294
  8
LAYER_1
 10
4.554295742087893
 20
2.179222031275431
 30
0.0
  0
VERTEX
  5
295
  8
LAYER_1
 10
4.529757609473334
 20
2.189433354695638
 30
0.0
  0
VERTEX
  5
296
  8
LAYER_1
 10
4.505514612992604
 20
2.200098461786906
 30
0.0
  0
VERTEX
  5
297
  8
LAYER_1
 10
4.481563602023654
 20
2.211210489908854
 30
0.0
  0
VERTEX
  5
298
  8
LAYER_1
 10
4.457901425944433
 20
2.222762576421101
 30
0.0
  0
VERTEX
  5
299
  8
LAYER_1
 10
4.434524934132893
 20
2.234747858683268
 30
0.0
  0
VERTEX
  5
29A
  8
LAYER_1
 10
4.411430975966983
 20
2.247159474054972
 30
0.0
  0
VERTEX
  5
29B
  8
LAYER_1
 10
4.388616400824652
 20
2.259990559895833
 30
0.0
  0
VERTEX
  5
29C
  8
LAYER_1
 10
4.366078058083851
 20
2.27323425356547
 30
0.0
  0
VERTEX
  5
29D
  8
LAYER_1
 10
4.343812797122531
 20
2.286883692423502
 30
0.0
  0
VERTEX
  5
29E
  8
LAYER_1
 10
4.32181746731864
 20
2.300932013829549
 30
0.0
  0
VERTEX
  5
29F
  8
LAYER_1
 10
4.30008891805013
 20
2.315372355143229
 30
0.0
  0
VERTEX
  5
2A0
  8
LAYER_1
 10
4.278623998694949
 20
2.330197853724162
 30
0.0
  0
VERTEX
  5
2A1
  8
LAYER_1
 10
4.257419558631049
 20
2.345401646931966
 30
0.0
  0
VERTEX
  5
2A2
  8
LAYER_1
 10
4.236472447236379
 20
2.360976872126261
 30
0.0
  0
VERTEX
  5
2A3
  8
LAYER_1
 10
4.215779513888888
 20
2.376916666666666
 30
0.0
  0
VERTEX
  5
2A4
  8
LAYER_1
 10
4.195337607966528
 20
2.393214167912801
 30
0.0
  0
VERTEX
  5
2A5
  8
LAYER_1
 10
4.175143578847248
 20
2.409862513224284
 30
0.0
  0
VERTEX
  5
2A6
  8
LAYER_1
 10
4.155194275908999
 20
2.426854839960734
 30
0.0
  0
VERTEX
  5
2A7
  8
LAYER_1
 10
4.13548654852973
 20
2.444184285481771
 30
0.0
  0
VERTEX
  5
2A8
  8
LAYER_1
 10
4.116017246087392
 20
2.461843987147013
 30
0.0
  0
VERTEX
  5
2A9
  8
LAYER_1
 10
4.096783217959933
 20
2.47982708231608
 30
0.0
  0
VERTEX
  5
2AA
  8
LAYER_1
 10
4.077781313525305
 20
2.498126708348592
 30
0.0
  0
VERTEX
  5
2AB
  8
LAYER_1
 10
4.059008382161457
 20
2.516736002604167
 30
0.0
  0
VERTEX
  5
2AC
  8
LAYER_1
 10
4.04046127324634
 20
2.535648102442424
 30
0.0
  0
VERTEX
  5
2AD
  8
LAYER_1
 10
4.022136836157904
 20
2.554856145222982
 30
0.0
  0
VERTEX
  5
2AE
  8
LAYER_1
 10
4.004031920274098
 20
2.574353268305461
 30
0.0
  0
VERTEX
  5
2AF
  8
LAYER_1
 10
3.986143374972872
 20
2.594132609049479
 30
0.0
  0
VERTEX
  5
2B0
  8
LAYER_1
 10
3.968468049632177
 20
2.614187304814656
 30
0.0
  0
VERTEX
  5
2B1
  8
LAYER_1
 10
3.951002793629963
 20
2.634510492960612
 30
0.0
  0
VERTEX
  5
2B2
  8
LAYER_1
 10
3.93374445634418
 20
2.655095310846964
 30
0.0
  0
VERTEX
  5
2B3
  8
LAYER_1
 10
3.916689887152777
 20
2.675934895833333
 30
0.0
  0
VERTEX
  5
2B4
  8
LAYER_1
 10
3.899835935433705
 20
2.697022385279337
 30
0.0
  0
VERTEX
  5
2B5
  8
LAYER_1
 10
3.883179450564914
 20
2.718350916544596
 30
0.0
  0
VERTEX
  5
2B6
  8
LAYER_1
 10
3.850446278889973
 20
2.761703653971353
 30
0.0
  0
VERTEX
  5
2B7
  8
LAYER_1
 10
3.818465167151556
 20
2.805938206990559
 30
0.0
  0
VERTEX
  5
2B8
  8
LAYER_1
 10
3.787210910373263
 20
2.850999674479166
 30
0.0
  0
VERTEX
  5
2B9
  8
LAYER_1
 10
3.756658303578694
 20
2.896833155314127
 30
0.0
  0
VERTEX
  5
2BA
  8
LAYER_1
 10
3.726782141791449
 20
2.943383748372395
 30
0.0
  0
VERTEX
  5
2BB
  8
LAYER_1
 10
3.697557220035128
 20
2.990596552530924
 30
0.0
  0
VERTEX
  5
2BC
  8
LAYER_1
 10
3.668958333333332
 20
3.038416666666667
 30
0.0
  0
VERTEX
  5
2BD
  8
LAYER_1
 10
3.697083375718857
 20
3.04162935341729
 30
0.0
  0
VERTEX
  5
2BE
  8
LAYER_1
 10
3.725097018771701
 20
3.045637203640408
 30
0.0
  0
VERTEX
  5
2BF
  8
LAYER_1
 10
3.752988286336262
 20
3.050432402292887
 30
0.0
  0
VERTEX
  5
2C0
  8
LAYER_1
 10
3.780746202256944
 20
3.056007134331597
 30
0.0
  0
VERTEX
  5
2C1
  8
LAYER_1
 10
3.808359790378146
 20
3.062353584713406
 30
0.0
  0
VERTEX
  5
2C2
  8
LAYER_1
 10
3.83581807454427
 20
3.069463938395182
 30
0.0
  0
VERTEX
  5
2C3
  8
LAYER_1
 10
3.863110078599718
 20
3.077330380333795
 30
0.0
  0
VERTEX
  5
2C4
  8
LAYER_1
 10
3.890224826388888
 20
3.085945095486111
 30
0.0
  0
VERTEX
  5
2C5
  8
LAYER_1
 10
3.917151341756184
 20
3.095300268809001
 30
0.0
  0
VERTEX
  5
2C6
  8
LAYER_1
 10
3.943878648546006
 20
3.105388085259332
 30
0.0
  0
VERTEX
  5
2C7
  8
LAYER_1
 10
3.970395770602756
 20
3.116200729793972
 30
0.0
  0
VERTEX
  5
2C8
  8
LAYER_1
 10
3.996691731770833
 20
3.127730387369792
 30
0.0
  0
VERTEX
  5
2C9
  8
LAYER_1
 10
4.02275555589464
 20
3.139969242943658
 30
0.0
  0
VERTEX
  5
2CA
  8
LAYER_1
 10
4.048576266818577
 20
3.152909481472439
 30
0.0
  0
VERTEX
  5
2CB
  8
LAYER_1
 10
4.074142888387044
 20
3.166543287913004
 30
0.0
  0
VERTEX
  5
2CC
  8
LAYER_1
 10
4.099444444444444
 20
3.180862847222222
 30
0.0
  0
VERTEX
  5
2CD
  8
LAYER_1
 10
4.124469958835178
 20
3.19586034435696
 30
0.0
  0
VERTEX
  5
2CE
  8
LAYER_1
 10
4.149208455403645
 20
3.211527964274088
 30
0.0
  0
VERTEX
  5
2CF
  8
LAYER_1
 10
4.173648957994248
 20
3.227857891930474
 30
0.0
  0
VERTEX
  5
2D0
  8
LAYER_1
 10
4.197780490451388
 20
3.244842312282985
 30
0.0
  0
VERTEX
  5
2D1
  8
LAYER_1
 10
4.221592076619466
 20
3.262473410288492
 30
0.0
  0
VERTEX
  5
2D2
  8
LAYER_1
 10
4.245072740342881
 20
3.280743370903862
 30
0.0
  0
VERTEX
  5
2D3
  8
LAYER_1
 10
4.268211505466036
 20
3.299644379085964
 30
0.0
  0
VERTEX
  5
2D4
  8
LAYER_1
 10
4.290997395833332
 20
3.319168619791666
 30
0.0
  0
VERTEX
  5
2D5
  8
LAYER_1
 10
4.31341943528917
 20
3.339308277977837
 30
0.0
  0
VERTEX
  5
2D6
  8
LAYER_1
 10
4.33546664767795
 20
3.360055538601345
 30
0.0
  0
VERTEX
  5
2D7
  8
LAYER_1
 10
4.357128056844074
 20
3.381402586619059
 30
0.0
  0
VERTEX
  5
2D8
  8
LAYER_1
 10
4.378392686631943
 20
3.403341606987847
 30
0.0
  0
VERTEX
  5
2D9
  8
LAYER_1
 10
4.399249560885958
 20
3.425864784664578
 30
0.0
  0
VERTEX
  5
2DA
  8
LAYER_1
 10
4.41968770345052
 20
3.44896430460612
 30
0.0
  0
VERTEX
  5
2DB
  8
LAYER_1
 10
4.43969613817003
 20
3.472632351769341
 30
0.0
  0
VERTEX
  5
2DC
  8
LAYER_1
 10
4.459263888888889
 20
3.496861111111111
 30
0.0
  0
VERTEX
  5
2DD
  8
LAYER_1
 10
4.41650865512424
 20
3.510309656778971
 30
0.0
  0
VERTEX
  5
2DE
  8
LAYER_1
 10
4.373888359917534
 20
3.524392347547743
 30
0.0
  0
VERTEX
  5
2DF
  8
LAYER_1
 10
4.331437518649631
 20
3.539140545315212
 30
0.0
  0
VERTEX
  5
2E0
  8
LAYER_1
 10
4.289190646701389
 20
3.554585611979166
 30
0.0
  0
VERTEX
  5
2E1
  8
LAYER_1
 10
4.247182259453668
 20
3.570758909437391
 30
0.0
  0
VERTEX
  5
2E2
  8
LAYER_1
 10
4.205446872287326
 20
3.587691799587673
 30
0.0
  0
VERTEX
  5
2E3
  8
LAYER_1
 10
4.164019000583225
 20
3.605415644327799
 30
0.0
  0
VERTEX
  5
2E4
  8
LAYER_1
 10
4.122933159722222
 20
3.623961805555555
 30
0.0
  0
VERTEX
  5
2E5
  8
LAYER_1
 10
4.082223865085178
 20
3.643361645168728
 30
0.0
  0
VERTEX
  5
2E6
  8
LAYER_1
 10
4.04192563205295
 20
3.663646525065104
 30
0.0
  0
VERTEX
  5
2E7
  8
LAYER_1
 10
4.002072976006401
 20
3.684847807142469
 30
0.0
  0
VERTEX
  5
2E8
  8
LAYER_1
 10
3.962700412326388
 20
3.706996853298611
 30
0.0
  0
VERTEX
  5
2E9
  8
LAYER_1
 10
3.923842456393771
 20
3.730125025431315
 30
0.0
  0
VERTEX
  5
2EA
  8
LAYER_1
 10
3.88553362358941
 20
3.754263685438367
 30
0.0
  0
VERTEX
  5
2EB
  8
LAYER_1
 10
3.866595914416843
 20
3.766721748987833
 30
0.0
  0
VERTEX
  5
2EC
  8
LAYER_1
 10
3.847808429294163
 20
3.779444195217556
 30
0.0
  0
VERTEX
  5
2ED
  8
LAYER_1
 10
3.829175482643975
 20
3.792434944364759
 30
0.0
  0
VERTEX
  5
2EE
  8
LAYER_1
 10
3.810701388888889
 20
3.805697916666666
 30
0.0
  0
VERTEX
  5
2EF
  8
LAYER_1
 10
3.79239046245151
 20
3.8192370323605
 30
0.0
  0
VERTEX
  5
2F0
  8
LAYER_1
 10
3.774247017754448
 20
3.833056211683484
 30
0.0
  0
VERTEX
  5
2F1
  8
LAYER_1
 10
3.756275369220309
 20
3.847159374872843
 30
0.0
  0
VERTEX
  5
2F2
  8
LAYER_1
 10
3.738479831271701
 20
3.861550442165798
 30
0.0
  0
VERTEX
  5
2F3
  8
LAYER_1
 10
3.720864718331231
 20
3.876233333799574
 30
0.0
  0
VERTEX
  5
2F4
  8
LAYER_1
 10
3.703434344821506
 20
3.891211970011393
 30
0.0
  0
VERTEX
  5
2F5
  8
LAYER_1
 10
3.686193025165133
 20
3.906490271038479
 30
0.0
  0
VERTEX
  5
2F6
  8
LAYER_1
 10
3.669145073784722
 20
3.922072157118055
 30
0.0
  0
VERTEX
  5
2F7
  8
LAYER_1
 10
3.652294805102878
 20
3.937961548487345
 30
0.0
  0
VERTEX
  5
2F8
  8
LAYER_1
 10
3.635646533542209
 20
3.954162365383572
 30
0.0
  0
VERTEX
  5
2F9
  8
LAYER_1
 10
3.619204573525322
 20
3.970678528043959
 30
0.0
  0
VERTEX
  5
2FA
  8
LAYER_1
 10
3.602973239474826
 20
3.987513956705729
 30
0.0
  0
VERTEX
  5
2FB
  8
LAYER_1
 10
3.586956845813326
 20
4.004672571606107
 30
0.0
  0
VERTEX
  5
2FC
  8
LAYER_1
 10
3.571159706963432
 20
4.022158292982313
 30
0.0
  0
VERTEX
  5
2FD
  8
LAYER_1
 10
3.555586137347751
 20
4.039975041071574
 30
0.0
  0
VERTEX
  5
2FE
  8
LAYER_1
 10
3.540240451388889
 20
4.058126736111111
 30
0.0
  0
VERTEX
  5
2FF
  8
LAYER_1
 10
3.525126963509453
 20
4.076617298338149
 30
0.0
  0
VERTEX
  5
300
  8
LAYER_1
 10
3.510249988132053
 20
4.095450647989908
 30
0.0
  0
VERTEX
  5
301
  8
LAYER_1
 10
3.495613839679294
 20
4.114630705303616
 30
0.0
  0
VERTEX
  5
302
  8
LAYER_1
 10
3.481222832573784
 20
4.134161390516493
 30
0.0
  0
VERTEX
  5
303
  8
LAYER_1
 10
3.467081281238131
 20
4.154046623865764
 30
0.0
  0
VERTEX
  5
304
  8
LAYER_1
 10
3.453193500094943
 20
4.17429032558865
 30
0.0
  0
VERTEX
  5
305
  8
LAYER_1
 10
3.439563803566827
 20
4.194896415922377
 30
0.0
  0
VERTEX
  5
306
  8
LAYER_1
 10
3.426196506076389
 20
4.215868815104167
 30
0.0
  0
VERTEX
  5
307
  8
LAYER_1
 10
3.413095922046237
 20
4.237211443371242
 30
0.0
  0
VERTEX
  5
308
  8
LAYER_1
 10
3.40026636589898
 20
4.258928220960829
 30
0.0
  0
VERTEX
  5
309
  8
LAYER_1
 10
3.387712152057223
 20
4.281023068110148
 30
0.0
  0
VERTEX
  5
30A
  8
LAYER_1
 10
3.375437594943576
 20
4.303499905056424
 30
0.0
  0
VERTEX
  5
30B
  8
LAYER_1
 10
3.363447008980645
 20
4.326362652036879
 30
0.0
  0
VERTEX
  5
30C
  8
LAYER_1
 10
3.351744708591037
 20
4.349615229288737
 30
0.0
  0
VERTEX
  5
30D
  8
LAYER_1
 10
3.340335008197361
 20
4.373261557049221
 30
0.0
  0
VERTEX
  5
30E
  8
LAYER_1
 10
3.329222222222222
 20
4.397305555555556
 30
0.0
  0
VERTEX
  5
30F
  8
LAYER_1
 10
3.346686013115777
 20
4.398581433614095
 30
0.0
  0
VERTEX
  5
310
  8
LAYER_1
 10
3.36432268608941
 20
4.400272671169705
 30
0.0
  0
VERTEX
  5
311
  8
LAYER_1
 10
3.382105660332574
 20
4.402393423292373
 30
0.0
  0
VERTEX
  5
312
  8
LAYER_1
 10
3.400008355034722
 20
4.404957845052084
 30
0.0
  0
VERTEX
  5
313
  8
LAYER_1
 10
3.418004189385308
 20
4.407980091518827
 30
0.0
  0
VERTEX
  5
314
  8
LAYER_1
 10
3.436066582573785
 20
4.411474317762587
 30
0.0
  0
VERTEX
  5
315
  8
LAYER_1
 10
3.454168953789606
 20
4.415454678853353
 30
0.0
  0
VERTEX
  5
316
  8
LAYER_1
 10
3.472284722222223
 20
4.419935329861111
 30
0.0
  0
VERTEX
  5
317
  8
LAYER_1
 10
3.49038730706109
 20
4.424930425855849
 30
0.0
  0
VERTEX
  5
318
  8
LAYER_1
 10
3.50845012749566
 20
4.430454121907553
 30
0.0
  0
VERTEX
  5
319
  8
LAYER_1
 10
3.526446602715387
 20
4.436520573086209
 30
0.0
  0
VERTEX
  5
31A
  8
LAYER_1
 10
3.544350151909723
 20
4.443143934461806
 30
0.0
  0
VERTEX
  5
31B
  8
LAYER_1
 10
3.562134194268121
 20
4.450338361104329
 30
0.0
  0
VERTEX
  5
31C
  8
LAYER_1
 10
3.579772148980035
 20
4.458118008083767
 30
0.0
  0
VERTEX
  5
31D
  8
LAYER_1
 10
3.597237435234918
 20
4.466497030470107
 30
0.0
  0
VERTEX
  5
31E
  8
LAYER_1
 10
3.614503472222222
 20
4.475489583333333
 30
0.0
  0
VERTEX
  5
31F
  8
LAYER_1
 10
3.631543679131402
 20
4.485109821743436
 30
0.0
  0
VERTEX
  5
320
  8
LAYER_1
 10
3.64833147515191
 20
4.495371900770399
 30
0.0
  0
VERTEX
  5
321
  8
LAYER_1
 10
3.664840279473198
 20
4.506289975484212
 30
0.0
  0
VERTEX
  5
322
  8
LAYER_1
 10
3.681043511284722
 20
4.51787820095486
 30
0.0
  0
VERTEX
  5
323
  8
LAYER_1
 10
3.696914589775933
 20
4.530150732252332
 30
0.0
  0
VERTEX
  5
324
  8
LAYER_1
 10
3.712426934136284
 20
4.543121724446613
 30
0.0
  0
VERTEX
  5
325
  8
LAYER_1
 10
3.72755396355523
 20
4.556805332607691
 30
0.0
  0
VERTEX
  5
326
  8
LAYER_1
 10
3.742269097222222
 20
4.571215711805555
 30
0.0
  0
VERTEX
  5
327
  8
LAYER_1
 10
3.756545754326714
 20
4.586367017110188
 30
0.0
  0
VERTEX
  5
328
  8
LAYER_1
 10
3.770357354058159
 20
4.602273403591579
 30
0.0
  0
VERTEX
  5
329
  8
LAYER_1
 10
3.783677315606011
 20
4.618949026319715
 30
0.0
  0
VERTEX
  5
32A
  8
LAYER_1
 10
3.796479058159721
 20
4.636408040364582
 30
0.0
  0
VERTEX
  5
32B
  8
LAYER_1
 10
3.808736000908745
 20
4.654664600796169
 30
0.0
  0
VERTEX
  5
32C
  8
LAYER_1
 10
3.820421563042534
 20
4.673732862684461
 30
0.0
  0
VERTEX
  5
32D
  8
LAYER_1
 10
3.831509163750542
 20
4.693626981099446
 30
0.0
  0
VERTEX
  5
32E
  8
LAYER_1
 10
3.841972222222221
 20
4.714361111111111
 30
0.0
  0
VERTEX
  5
32F
  8
LAYER_1
 10
3.823424616442785
 20
4.71834174436993
 30
0.0
  0
VERTEX
  5
330
  8
LAYER_1
 10
3.804944240570067
 20
4.723004476335312
 30
0.0
  0
VERTEX
  5
331
  8
LAYER_1
 10
3.786534522427452
 20
4.728340711540645
 30
0.0
  0
VERTEX
  5
332
  8
LAYER_1
 10
3.768198889838324
 20
4.734341854519314
 30
0.0
  0
VERTEX
  5
333
  8
LAYER_1
 10
3.749940770626067
 20
4.740999309804703
 30
0.0
  0
VERTEX
  5
334
  8
LAYER_1
 10
3.731763592614067
 20
4.748304481930202
 30
0.0
  0
VERTEX
  5
335
  8
LAYER_1
 10
3.713670783625708
 20
4.756248775429195
 30
0.0
  0
VERTEX
  5
336
  8
LAYER_1
 10
3.695665771484374
 20
4.764823594835069
 30
0.0
  0
VERTEX
  5
337
  8
LAYER_1
 10
3.677751984013451
 20
4.77402034468121
 30
0.0
  0
VERTEX
  5
338
  8
LAYER_1
 10
3.659932849036322
 20
4.783830429501004
 30
0.0
  0
VERTEX
  5
339
  8
LAYER_1
 10
3.642211794376373
 20
4.794245253827837
 30
0.0
  0
VERTEX
  5
33A
  8
LAYER_1
 10
3.624592247856987
 20
4.805256222195096
 30
0.0
  0
VERTEX
  5
33B
  8
LAYER_1
 10
3.607077637301551
 20
4.816854739136167
 30
0.0
  0
VERTEX
  5
33C
  8
LAYER_1
 10
3.589671390533447
 20
4.829032209184435
 30
0.0
  0
VERTEX
  5
33D
  8
LAYER_1
 10
3.57237693537606
 20
4.841780036873288
 30
0.0
  0
VERTEX
  5
33E
  8
LAYER_1
 10
3.555197699652777
 20
4.855089626736111
 30
0.0
  0
VERTEX
  5
33F
  8
LAYER_1
 10
3.53813711118698
 20
4.868952383306292
 30
0.0
  0
VERTEX
  5
340
  8
LAYER_1
 10
3.521198597802055
 20
4.883359711117214
 30
0.0
  0
VERTEX
  5
341
  8
LAYER_1
 10
3.504385587321387
 20
4.898303014702267
 30
0.0
  0
VERTEX
  5
342
  8
LAYER_1
 10
3.487701507568358
 20
4.913773698594834
 30
0.0
  0
VERTEX
  5
343
  8
LAYER_1
 10
3.471149786366356
 20
4.929763167328304
 30
0.0
  0
VERTEX
  5
344
  8
LAYER_1
 10
3.454733851538763
 20
4.946262825436062
 30
0.0
  0
VERTEX
  5
345
  8
LAYER_1
 10
3.438457130908966
 20
4.963264077451493
 30
0.0
  0
VERTEX
  5
346
  8
LAYER_1
 10
3.422323052300347
 20
4.980758327907986
 30
0.0
  0
VERTEX
  5
347
  8
LAYER_1
 10
3.406335043536292
 20
4.998736981338926
 30
0.0
  0
VERTEX
  5
348
  8
LAYER_1
 10
3.390496532440185
 20
5.017191442277697
 30
0.0
  0
VERTEX
  5
349
  8
LAYER_1
 10
3.374810946835411
 20
5.036113115257687
 30
0.0
  0
VERTEX
  5
34A
  8
LAYER_1
 10
3.359281714545356
 20
5.055493404812283
 30
0.0
  0
VERTEX
  5
34B
  8
LAYER_1
 10
3.343912263393402
 20
5.07532371547487
 30
0.0
  0
VERTEX
  5
34C
  8
LAYER_1
 10
3.328706021202935
 20
5.095595451778835
 30
0.0
  0
VERTEX
  5
34D
  8
LAYER_1
 10
3.31366641579734
 20
5.116300018257565
 30
0.0
  0
VERTEX
  5
34E
  8
LAYER_1
 10
3.298796875
 20
5.137428819444444
 30
0.0
  0
VERTEX
  5
34F
  8
LAYER_1
 10
3.284100826634301
 20
5.158973259872859
 30
0.0
  0
VERTEX
  5
350
  8
LAYER_1
 10
3.269581698523627
 20
5.180924744076198
 30
0.0
  0
VERTEX
  5
351
  8
LAYER_1
 10
3.255242918491363
 20
5.203274676587846
 30
0.0
  0
VERTEX
  5
352
  8
LAYER_1
 10
3.241087914360894
 20
5.226014461941189
 30
0.0
  0
VERTEX
  5
353
  8
LAYER_1
 10
3.227120113955603
 20
5.249135504669613
 30
0.0
  0
VERTEX
  5
354
  8
LAYER_1
 10
3.213342945098877
 20
5.272629209306504
 30
0.0
  0
VERTEX
  5
355
  8
LAYER_1
 10
3.199759835614098
 20
5.296486980385249
 30
0.0
  0
VERTEX
  5
356
  8
LAYER_1
 10
3.186374213324653
 20
5.320700222439235
 30
0.0
  0
VERTEX
  5
357
  8
LAYER_1
 10
3.173189506053925
 20
5.345260340001848
 30
0.0
  0
VERTEX
  5
358
  8
LAYER_1
 10
3.160209141625299
 20
5.370158737606472
 30
0.0
  0
VERTEX
  5
359
  8
LAYER_1
 10
3.147436547862159
 20
5.395386819786495
 30
0.0
  0
VERTEX
  5
35A
  8
LAYER_1
 10
3.134875152587891
 20
5.420935991075304
 30
0.0
  0
VERTEX
  5
35B
  8
LAYER_1
 10
3.122528383625878
 20
5.446797656006283
 30
0.0
  0
VERTEX
  5
35C
  8
LAYER_1
 10
3.110399668799506
 20
5.47296321911282
 30
0.0
  0
VERTEX
  5
35D
  8
LAYER_1
 10
3.098492435932159
 20
5.4994240849283
 30
0.0
  0
VERTEX
  5
35E
  8
LAYER_1
 10
3.086810112847222
 20
5.526171657986111
 30
0.0
  0
VERTEX
  5
35F
  8
LAYER_1
 10
3.075356127368079
 20
5.553197342819637
 30
0.0
  0
VERTEX
  5
360
  8
LAYER_1
 10
3.064133907318115
 20
5.580492543962266
 30
0.0
  0
VERTEX
  5
361
  8
LAYER_1
 10
3.053146880520714
 20
5.608048665947384
 30
0.0
  0
VERTEX
  5
362
  8
LAYER_1
 10
3.042398474799262
 20
5.635857113308376
 30
0.0
  0
VERTEX
  5
363
  8
LAYER_1
 10
3.031892117977142
 20
5.66390929057863
 30
0.0
  0
VERTEX
  5
364
  8
LAYER_1
 10
3.021631237877739
 20
5.692196602291531
 30
0.0
  0
VERTEX
  5
365
  8
LAYER_1
 10
3.011619262324439
 20
5.720710452980465
 30
0.0
  0
VERTEX
  5
366
  8
LAYER_1
 10
3.001859619140625
 20
5.749442247178819
 30
0.0
  0
VERTEX
  5
367
  8
LAYER_1
 10
2.992355736149682
 20
5.778383389419979
 30
0.0
  0
VERTEX
  5
368
  8
LAYER_1
 10
2.983111041174994
 20
5.807525284237331
 30
0.0
  0
VERTEX
  5
369
  8
LAYER_1
 10
2.974128962039947
 20
5.836859336164261
 30
0.0
  0
VERTEX
  5
36A
  8
LAYER_1
 10
2.965412926567925
 20
5.866376949734158
 30
0.0
  0
VERTEX
  5
36B
  8
LAYER_1
 10
2.956966362582313
 20
5.896069529480404
 30
0.0
  0
VERTEX
  5
36C
  8
LAYER_1
 10
2.948792697906494
 20
5.925928479936388
 30
0.0
  0
VERTEX
  5
36D
  8
LAYER_1
 10
2.940895360363854
 20
5.955945205635494
 30
0.0
  0
SEQEND
  5
36E
  8
LAYER_1
  0
ENDSEC
  0
EOF
